<svg width="25" height="24" viewBox="0 0 25 24" fill="none" xmlns="http://www.w3.org/2000/svg">
<path d="M15.25 12C15.25 13.6569 13.9069 15 12.25 15C10.5931 15 9.25 13.6569 9.25 12C9.25 10.3431 10.5931 9 12.25 9C13.9069 9 15.25 10.3431 15.25 12Z" fill="white" fill-opacity="0.64"/>
<path d="M6.25 12C6.25 13.6569 4.90685 15 3.25 15C1.59315 15 0.25 13.6569 0.25 12C0.25 10.3431 1.59315 9 3.25 9C4.90685 9 6.25 10.3431 6.25 12Z" fill="white" fill-opacity="0.64"/>
<path d="M24.25 12C24.25 13.6569 22.9069 15 21.25 15C19.5931 15 18.25 13.6569 18.25 12C18.25 10.3431 19.5931 9 21.25 9C22.9069 9 24.25 10.3431 24.25 12Z" fill="white" fill-opacity="0.64"/>
</svg>
