<svg width="38" height="57" viewBox="0 0 38 57" fill="none" xmlns="http://www.w3.org/2000/svg">
  <g filter="url(#filter0_d_1802_106955)">
    <path d="M3 52V2H35V52L18.5152 42.9091L3 52Z" fill="url(#paint0_linear_1802_106955)"/>
  </g>
  <path d="M35 2L35 7L3 7L3 2L35 2Z" fill="#F44336"/>
  <path d="M14.1292 19V18C13.5769 18 13.1292 18.4477 13.1292 19H14.1292ZM24.1292 19H25.1292C25.1292 18.4477 24.6814 18 24.1292 18V19ZM24.1292 22V23C24.6814 23 25.1292 22.5523 25.1292 22H24.1292ZM14.1292 22H13.1292C13.1292 22.5523 13.5769 23 14.1292 23V22ZM14.1292 26V25C13.5769 25 13.1292 25.4477 13.1292 26H14.1292ZM21.1292 26H22.1292C22.1292 25.4477 21.6814 25 21.1292 25V26ZM21.1292 29V30C21.6814 30 22.1292 29.5523 22.1292 29H21.1292ZM14.1292 29H13.1292C13.1292 29.5523 13.5769 30 14.1292 30V29ZM12.8984 16H25.3599V14H12.8984V16ZM25.3599 16C26.337 16 27.1292 16.7921 27.1292 17.7692H29.1292C29.1292 15.6875 27.4416 14 25.3599 14V16ZM27.1292 17.7692V30.2308H29.1292V17.7692H27.1292ZM27.1292 30.2308C27.1292 31.2079 26.337 32 25.3599 32V34C27.4416 34 29.1292 32.3125 29.1292 30.2308H27.1292ZM25.3599 32H12.8984V34H25.3599V32ZM12.8984 32C11.9213 32 11.1292 31.2079 11.1292 30.2308H9.12915C9.12915 32.3125 10.8167 34 12.8984 34V32ZM11.1292 30.2308V17.7692H9.12915V30.2308H11.1292ZM11.1292 17.7692C11.1292 16.7921 11.9213 16 12.8984 16V14C10.8167 14 9.12915 15.6875 9.12915 17.7692H11.1292ZM14.1292 20H24.1292V18H14.1292V20ZM23.1292 19V22H25.1292V19H23.1292ZM24.1292 21H14.1292V23H24.1292V21ZM15.1292 22V19H13.1292V22H15.1292ZM14.1292 27H21.1292V25H14.1292V27ZM20.1292 26V29H22.1292V26H20.1292ZM21.1292 28H14.1292V30H21.1292V28ZM15.1292 29V26H13.1292V29H15.1292Z" fill="white" fill-opacity="0.75"/>
  <defs>
    <filter id="filter0_d_1802_106955" x="0" y="0.5" width="38" height="56" filterUnits="userSpaceOnUse" color-interpolation-filters="sRGB">
      <feFlood flood-opacity="0" result="BackgroundImageFix"/>
      <feColorMatrix in="SourceAlpha" type="matrix" values="0 0 0 0 0 0 0 0 0 0 0 0 0 0 0 0 0 0 127 0" result="hardAlpha"/>
      <feOffset dy="1.5"/>
      <feGaussianBlur stdDeviation="1.5"/>
      <feComposite in2="hardAlpha" operator="out"/>
      <feColorMatrix type="matrix" values="0 0 0 0 0 0 0 0 0 0 0 0 0 0 0 0 0 0 0.12 0"/>
      <feBlend mode="normal" in2="BackgroundImageFix" result="effect1_dropShadow_1802_106955"/>
      <feBlend mode="normal" in="SourceGraphic" in2="effect1_dropShadow_1802_106955" result="shape"/>
    </filter>
    <linearGradient id="paint0_linear_1802_106955" x1="19" y1="8.5" x2="19" y2="52" gradientUnits="userSpaceOnUse">
      <stop stop-color="#D5190C"/>
      <stop offset="1" stop-color="#F32F21"/>
    </linearGradient>
  </defs>
</svg>
