<svg width="39" height="57" viewBox="0 0 39 57" fill="none" xmlns="http://www.w3.org/2000/svg">
  <g filter="url(#filter0_d_1764_106036)">
    <path d="M3.5 52V2H35.5V52L19.0152 42.9091L3.5 52Z" fill="url(#paint0_linear_1764_106036)"/>
  </g>
  <path d="M35.5 2L35.5 7L3.5 7L3.5 2L35.5 2Z" fill="#368DF4"/>
  <path fill-rule="evenodd" clip-rule="evenodd" d="M19.6291 25.9999C20.1814 25.9999 20.6291 25.5522 20.6291 24.9999C20.6291 24.4476 20.1814 23.9999 19.6291 23.9999C19.0769 23.9999 18.6292 24.4476 18.6292 24.9999C18.6292 25.5522 19.0769 25.9999 19.6291 25.9999ZM24.6292 25.9999C25.1814 25.9999 25.6292 25.5522 25.6292 24.9999C25.6292 24.4476 25.1814 23.9999 24.6292 23.9999C24.0769 23.9999 23.6292 24.4476 23.6292 24.9999C23.6292 25.5522 24.0769 25.9999 24.6292 25.9999ZM19.6291 29.9996C20.1814 29.9996 20.6291 29.5519 20.6291 28.9996C20.6291 28.4473 20.1814 27.9996 19.6291 27.9996C19.0769 27.9996 18.6292 28.4473 18.6292 28.9996C18.6292 29.5519 19.0769 29.9996 19.6291 29.9996ZM24.6292 29.9996C25.1814 29.9996 25.6292 29.5519 25.6292 28.9996C25.6292 28.4473 25.1814 27.9996 24.6292 27.9996C24.0769 27.9996 23.6292 28.4473 23.6292 28.9996C23.6292 29.5519 24.0769 29.9996 24.6292 29.9996ZM14.6292 25.9999C15.1814 25.9999 15.6292 25.5522 15.6292 24.9999C15.6292 24.4476 15.1814 23.9999 14.6292 23.9999C14.0769 23.9999 13.6292 24.4476 13.6292 24.9999C13.6292 25.5522 14.0769 25.9999 14.6292 25.9999ZM26.6292 15.9998H25.6291V14.9998C25.6291 14.4475 25.1814 13.9998 24.6292 13.9998C24.0769 13.9998 23.6291 14.4475 23.6291 14.9998V15.9998H15.6292V14.9998C15.6292 14.4475 15.1814 13.9998 14.6292 13.9998C14.0769 13.9998 13.6292 14.4475 13.6292 14.9998V15.9998H12.6292C10.9723 15.9998 9.62915 17.3429 9.62915 18.9998V30.9998C9.62915 32.6566 10.9723 33.9998 12.6292 33.9998H26.6292C28.286 33.9998 29.6292 32.6566 29.6292 30.9998V18.9998C29.6292 17.3429 28.286 15.9998 26.6292 15.9998ZM27.6292 30.9996C27.6292 31.5519 27.1814 31.9996 26.6292 31.9996H12.6292C12.0769 31.9996 11.6292 31.5519 11.6292 30.9996V21.9996H27.6292V30.9996ZM27.6292 19.9999H11.6292V18.9999C11.6292 18.4476 12.0769 17.9999 12.6292 17.9999H26.6292C27.1814 17.9999 27.6292 18.4476 27.6292 18.9999V19.9999ZM14.6292 29.9996C15.1814 29.9996 15.6292 29.5519 15.6292 28.9996C15.6292 28.4473 15.1814 27.9996 14.6292 27.9996C14.0769 27.9996 13.6292 28.4473 13.6292 28.9996C13.6292 29.5519 14.0769 29.9996 14.6292 29.9996Z" fill="white" fill-opacity="0.75"/>
  <defs>
    <filter id="filter0_d_1764_106036" x="0.5" y="0.5" width="38" height="56" filterUnits="userSpaceOnUse" color-interpolation-filters="sRGB">
      <feFlood flood-opacity="0" result="BackgroundImageFix"/>
      <feColorMatrix in="SourceAlpha" type="matrix" values="0 0 0 0 0 0 0 0 0 0 0 0 0 0 0 0 0 0 127 0" result="hardAlpha"/>
      <feOffset dy="1.5"/>
      <feGaussianBlur stdDeviation="1.5"/>
      <feComposite in2="hardAlpha" operator="out"/>
      <feColorMatrix type="matrix" values="0 0 0 0 0 0 0 0 0 0 0 0 0 0 0 0 0 0 0.12 0"/>
      <feBlend mode="normal" in2="BackgroundImageFix" result="effect1_dropShadow_1764_106036"/>
      <feBlend mode="normal" in="SourceGraphic" in2="effect1_dropShadow_1764_106036" result="shape"/>
    </filter>
    <linearGradient id="paint0_linear_1764_106036" x1="19.5" y1="8.5" x2="19.5" y2="52" gradientUnits="userSpaceOnUse">
      <stop stop-color="#0C74D5"/>
      <stop offset="1" stop-color="#2175F3"/>
    </linearGradient>
  </defs>
</svg>
