<svg width="16" height="16" viewBox="0 0 16 16" fill="none" xmlns="http://www.w3.org/2000/svg">
<path d="M14 0.0079999C14.56 0.0079999 15.032 0.2 15.416 0.584C15.8 0.967999 15.992 1.44 15.992 2V14C15.992 14.272 15.936 14.528 15.824 14.768C15.728 15.008 15.592 15.216 15.416 15.392C15.24 15.584 15.032 15.728 14.792 15.824C14.552 15.936 14.288 15.992 14 15.992H2C1.456 15.992 0.984 15.792 0.584 15.392C0.2 15.008 0.00800025 14.544 0.00800025 14V2C0.00800025 1.712 0.0560002 1.448 0.152 1.208C0.264 0.967999 0.408 0.759999 0.584 0.584C0.776 0.407999 0.992 0.271999 1.232 0.175999C1.472 0.0639997 1.728 0.0079999 2 0.0079999H14ZM3.608 8L6.992 11.408L12.392 6.008L11 4.592L6.992 8.6L5 6.608L3.608 8Z" fill="#949499"/>
</svg>
