<svg width="16" height="16" viewBox="0 0 16 16" fill="none" xmlns="http://www.w3.org/2000/svg">
<path d="M3.992 0.0079999H14C14.304 0.0079999 14.544 0.0959997 14.72 0.271999C14.912 0.447999 15.008 0.687999 15.008 0.991999V12.992H12.992V2H3.992V0.0079999ZM9.992 3.992C10.296 3.992 10.536 4.088 10.712 4.28C10.904 4.456 11 4.696 11 5V15.008C11 15.312 10.904 15.552 10.712 15.728C10.536 15.904 10.296 15.992 9.992 15.992H2C1.696 15.992 1.448 15.904 1.256 15.728C1.08 15.552 0.992 15.312 0.992 15.008V5C0.992 4.696 1.08 4.456 1.256 4.28C1.448 4.088 1.696 3.992 2 3.992H9.992Z" fill="#949499"/>
</svg>
