<svg width="16" height="16" viewBox="0 0 16 16" fill="none" xmlns="http://www.w3.org/2000/svg">
<path d="M0.00800025 8C0.00800025 6.896 0.216 5.864 0.632 4.904C1.064 3.928 1.64 3.08 2.36 2.36C3.096 1.624 3.944 1.048 4.904 0.631999C5.88 0.216 6.912 0.0079999 8 0.0079999C8.704 0.0079999 9.392 0.104 10.064 0.295999C10.736 0.472 11.368 0.736 11.96 1.088C12.568 1.424 13.12 1.84 13.616 2.336C14.112 2.816 14.536 3.36 14.888 3.968C15.256 4.592 15.528 5.248 15.704 5.936C15.896 6.608 15.992 7.296 15.992 8C15.992 8.688 15.896 9.376 15.704 10.064C15.528 10.752 15.256 11.408 14.888 12.032C14.536 12.64 14.112 13.192 13.616 13.688C13.12 14.168 12.568 14.576 11.96 14.912C11.368 15.264 10.736 15.528 10.064 15.704C9.392 15.896 8.704 15.992 8 15.992C6.896 15.992 5.856 15.776 4.88 15.344C3.92 14.928 3.072 14.36 2.336 13.64C1.616 12.904 1.048 12.056 0.632 11.096C0.216 10.12 0.00800025 9.088 0.00800025 8ZM10.112 11.504L11.504 10.088L9.392 8L11.504 5.888L10.112 4.496L8 6.608L5.912 4.496L4.496 5.888L6.608 8L4.496 10.088L5.912 11.504L8 9.392L10.112 11.504Z" fill="#949499"/>
</svg>
