<svg width="16" height="16" viewBox="0 0 16 16" fill="none" xmlns="http://www.w3.org/2000/svg">
<path d="M12.992 2H15.008C15.28 2 15.512 2.104 15.704 2.312C15.896 2.504 15.992 2.736 15.992 3.008V15.008C15.992 15.28 15.896 15.512 15.704 15.704C15.512 15.896 15.28 15.992 15.008 15.992H0.992C0.72 15.992 0.488 15.896 0.296 15.704C0.104 15.512 0.00800025 15.28 0.00800025 15.008V3.008C0.00800025 2.736 0.104 2.504 0.296 2.312C0.488 2.104 0.72 2 0.992 2H3.008V0.0079999H6.008V2H9.992V0.0079999H12.992V2ZM2 14H14V5H2V14ZM3.992 6.992H6.008V9.008H3.992V6.992ZM9.008 6.992V9.008H6.992V6.992H9.008ZM9.992 6.992H12.008V9.008H9.992V6.992ZM3.992 9.992H6.008V12.008H3.992V9.992ZM9.008 9.992V12.008H6.992V9.992H9.008ZM12.008 9.992V12.008H9.992V9.992H12.008Z" fill="#949499"/>
</svg>
