<svg width="16" height="14" viewBox="0 0 16 14" fill="none" xmlns="http://www.w3.org/2000/svg">
<path d="M3.992 1.488C3.992 1.904 3.848 2.264 3.56 2.568C3.272 2.856 2.92 3 2.504 3C2.088 3 1.728 2.856 1.424 2.568C1.136 2.264 0.992 1.904 0.992 1.488C0.992 1.072 1.136 0.72 1.424 0.431999C1.728 0.144 2.088 0 2.504 0C2.92 0 3.272 0.144 3.56 0.431999C3.848 0.72 3.992 1.072 3.992 1.488ZM15.992 2.496H6.008V0.503999H15.992V2.496ZM3.992 6.504C3.992 6.904 3.848 7.256 3.56 7.56C3.272 7.848 2.92 7.992 2.504 7.992C2.088 7.992 1.728 7.848 1.424 7.56C1.136 7.272 0.992 6.92 0.992 6.504C0.992 6.088 1.136 5.736 1.424 5.448C1.728 5.144 2.088 4.992 2.504 4.992C2.92 4.992 3.272 5.144 3.56 5.448C3.848 5.736 3.992 6.088 3.992 6.504ZM6.008 7.488V5.496H15.992V7.488H6.008ZM2.504 13.008C2.088 13.008 1.728 12.856 1.424 12.552C1.136 12.264 0.992 11.912 0.992 11.496C0.992 11.08 1.136 10.728 1.424 10.44C1.728 10.152 2.088 10.008 2.504 10.008C2.92 10.008 3.272 10.152 3.56 10.44C3.848 10.728 3.992 11.08 3.992 11.496C3.992 11.912 3.848 12.264 3.56 12.552C3.272 12.856 2.92 13.008 2.504 13.008ZM15.992 12.504H6.008V10.488H15.992V12.504Z" fill="#949499"/>
</svg>
