<svg width="20" height="20" viewBox="0 0 20 20" fill="none" xmlns="http://www.w3.org/2000/svg">
<path d="M9.88078 0.799999C11.1608 0.786666 12.3608 1.01333 13.4808 1.48C14.6008 1.93333 15.5808 2.56667 16.4208 3.38C17.2608 4.19333 17.9274 5.15333 18.4208 6.26C18.9141 7.36667 19.1674 8.56 19.1808 9.84C19.2074 11.12 18.9874 12.32 18.5208 13.44C18.0541 14.56 17.4074 15.54 16.5808 16.38C15.7674 17.2333 14.8074 17.9067 13.7008 18.4C12.5941 18.9067 11.4008 19.1667 10.1208 19.18C8.84078 19.2067 7.64078 18.9867 6.52078 18.52C5.40078 18.0533 4.41411 17.4067 3.56078 16.58C2.72078 15.7667 2.05411 14.8067 1.56078 13.7C1.06745 12.5933 0.807448 11.4 0.780781 10.12C0.754115 8.84 0.974115 7.64 1.44078 6.52C1.92078 5.38667 2.56745 4.4 3.38078 3.56C4.20745 2.72 5.17411 2.05333 6.28078 1.56C7.40078 1.06667 8.60078 0.813332 9.88078 0.799999ZM13.1608 9.04C13.5074 8.57333 13.6808 8.05333 13.6808 7.48C13.6808 6.96 13.5874 6.50667 13.4008 6.12C13.2141 5.73333 12.9541 5.41333 12.6208 5.16C12.2874 4.90667 11.8874 4.72 11.4208 4.6C10.9674 4.46667 10.4674 4.4 9.92078 4.4C8.81412 4.4 7.96078 4.69333 7.36078 5.28C6.77411 5.85333 6.45411 6.70667 6.40078 7.84V7.92H8.60078V7.84C8.60078 7.49333 8.70745 7.13333 8.92078 6.76C9.14745 6.44 9.51411 6.28 10.0208 6.28C10.5408 6.28 10.8808 6.41333 11.0408 6.68C11.2541 6.93333 11.3608 7.22667 11.3608 7.56C11.3608 7.8 11.2541 8.06667 11.0408 8.36C10.9341 8.52 10.8008 8.65333 10.6408 8.76L10.2008 9.06C10.1741 9.07333 10.1408 9.1 10.1008 9.14L9.90078 9.28C9.87411 9.29333 9.85411 9.30667 9.84078 9.32C9.84078 9.33333 9.82745 9.34667 9.80078 9.36L9.38078 9.7C9.23411 9.82 9.12078 9.93333 9.04078 10.04C8.86745 10.2933 8.74745 10.8133 8.68078 11.6V11.76H10.8408V11.68C10.8408 11.4 10.8874 11.16 10.9808 10.96C11.0874 10.76 11.2541 10.5733 11.4808 10.4L12.0408 10.04C12.6541 9.58667 13.0274 9.25333 13.1608 9.04ZM9.84078 15.6C10.2408 15.6 10.5674 15.4733 10.8208 15.22C11.0741 14.9667 11.2008 14.6533 11.2008 14.28C11.2274 13.88 11.1141 13.5533 10.8608 13.3C10.6074 13.0467 10.2808 12.92 9.88078 12.92H9.84078C9.46745 12.92 9.15412 13.04 8.90078 13.28C8.64745 13.52 8.50745 13.8267 8.48078 14.2C8.48078 14.6 8.60745 14.9267 8.86078 15.18C9.11412 15.4333 9.42745 15.5733 9.80078 15.6H9.84078Z" fill="#949499"/>
</svg>
