<svg xmlns="http://www.w3.org/2000/svg" width="24" height="24" viewBox="0 0 24 24">
    <g fill="none" fill-rule="nonzero">
        <path fill="#FFF" d="M12 0c6.627 0 12 5.373 12 12s-5.373 12-12 12S0 18.627 0 12 5.373 0 12 0z"/>
        <path stroke="#232430" d="M23.5 12c0 3.176-1.287 6.05-3.368 8.132A11.464 11.464 0 0 1 12 23.5c-3.176 0-6.05-1.287-8.132-3.368A11.464 11.464 0 0 1 .5 12c0-3.176 1.287-6.05 3.368-8.132A11.464 11.464 0 0 1 12 .5c3.176 0 6.05 1.287 8.132 3.368A11.464 11.464 0 0 1 23.5 12z" opacity=".25"/>
        <g fill="#F26334">
            <path d="M16.667 11.333h-4v-4c0-.4-.267-.666-.667-.666s-.667.266-.667.666v4h-4c-.4 0-.666.267-.666.667s.266.667.666.667h4v4c0 .4.267.666.667.666s.667-.266.667-.666v-4h4c.4 0 .666-.267.666-.667s-.266-.667-.666-.667z"/>
        </g>
    </g>
</svg>
