<svg width="24" height="24" viewBox="0 0 24 24" fill="none" xmlns="http://www.w3.org/2000/svg">
  <path d="M16.008 7.008H19.992V9H4.008V7.008H7.992V4.992C7.992 4.688 8.08 4.448 8.256 4.272C8.448 4.096 8.696 4.008 9 4.008H15C15.304 4.008 15.544 4.096 15.72 4.272C15.912 4.448 16.008 4.688 16.008 4.992V7.008ZM13.992 7.008V6H10.008V7.008H13.992ZM6 10.008H18V18C18 18.272 17.944 18.528 17.832 18.768C17.736 19.008 17.6 19.216 17.424 19.392C17.248 19.584 17.04 19.728 16.8 19.824C16.56 19.936 16.296 19.992 16.008 19.992H7.992C7.448 19.992 6.976 19.792 6.576 19.392C6.192 19.008 6 18.544 6 18V10.008Z" fill="#949499"/>
</svg>
