<svg width="24" height="24" viewBox="0 0 24 24" fill="none" xmlns="http://www.w3.org/2000/svg">
  <path d="M9 4.008C9.56 4.008 10.032 4.2 10.416 4.584C10.8 4.952 10.992 5.416 10.992 5.976C10.992 6.536 10.8 7.016 10.416 7.416C10.048 7.8 9.584 7.992 9.024 7.992C8.464 7.992 7.984 7.8 7.584 7.416C7.2 7.016 7.008 6.536 7.008 5.976C7.008 5.416 7.2 4.952 7.584 4.584C7.984 4.2 8.456 4.008 9 4.008ZM15 4.008C15.56 4.008 16.032 4.2 16.416 4.584C16.8 4.952 16.992 5.416 16.992 5.976C16.992 6.536 16.8 7.016 16.416 7.416C16.048 7.8 15.584 7.992 15.024 7.992C14.464 7.992 13.984 7.8 13.584 7.416C13.2 7.016 13.008 6.536 13.008 5.976C13.008 5.416 13.2 4.952 13.584 4.584C13.984 4.2 14.456 4.008 15 4.008ZM9 10.008C9.56 10.008 10.032 10.2 10.416 10.584C10.8 10.952 10.992 11.416 10.992 11.976C10.992 12.536 10.8 13.016 10.416 13.416C10.048 13.8 9.584 13.992 9.024 13.992C8.464 13.992 7.984 13.8 7.584 13.416C7.2 13.016 7.008 12.536 7.008 11.976C7.008 11.416 7.2 10.952 7.584 10.584C7.984 10.2 8.456 10.008 9 10.008ZM15 10.008C15.56 10.008 16.032 10.2 16.416 10.584C16.8 10.952 16.992 11.416 16.992 11.976C16.992 12.536 16.8 13.016 16.416 13.416C16.048 13.8 15.584 13.992 15.024 13.992C14.464 13.992 13.984 13.8 13.584 13.416C13.2 13.016 13.008 12.536 13.008 11.976C13.008 11.416 13.2 10.952 13.584 10.584C13.984 10.2 14.456 10.008 15 10.008ZM9 16.008C9.56 16.008 10.032 16.2 10.416 16.584C10.8 16.952 10.992 17.416 10.992 17.976C10.992 18.536 10.8 19.008 10.416 19.392C10.048 19.792 9.584 19.992 9.024 19.992C8.752 19.992 8.488 19.936 8.232 19.824C7.992 19.728 7.776 19.584 7.584 19.392C7.408 19.216 7.264 19.008 7.152 18.768C7.056 18.528 7.008 18.264 7.008 17.976C7.008 17.416 7.2 16.952 7.584 16.584C7.984 16.2 8.456 16.008 9 16.008ZM15 16.008C15.56 16.008 16.032 16.2 16.416 16.584C16.8 16.952 16.992 17.416 16.992 17.976C16.992 18.536 16.8 19.008 16.416 19.392C16.048 19.792 15.584 19.992 15.024 19.992C14.752 19.992 14.488 19.936 14.232 19.824C13.992 19.728 13.776 19.584 13.584 19.392C13.408 19.216 13.264 19.008 13.152 18.768C13.056 18.528 13.008 18.264 13.008 17.976C13.008 17.416 13.2 16.952 13.584 16.584C13.984 16.2 14.456 16.008 15 16.008Z" fill="#949499"/>
</svg>
