<svg width="24" height="24" viewBox="0 0 24 24" fill="none" xmlns="http://www.w3.org/2000/svg">
  <path d="M16.992 10.992C17.296 10.992 17.536 11.088 17.712 11.28C17.904 11.456 18 11.696 18 12C18 12.304 17.904 12.552 17.712 12.744C17.536 12.92 17.296 13.008 16.992 13.008H13.008V16.992C13.008 17.296 12.912 17.544 12.72 17.736C12.544 17.912 12.304 18 12 18C11.696 18 11.448 17.912 11.256 17.736C11.08 17.544 10.992 17.296 10.992 16.992V13.008H7.008C6.704 13.008 6.456 12.92 6.264 12.744C6.088 12.552 6 12.304 6 12C6 11.696 6.088 11.456 6.264 11.28C6.456 11.088 6.704 10.992 7.008 10.992H10.992V7.008C10.992 6.704 11.08 6.464 11.256 6.288C11.448 6.096 11.696 6 12 6C12.304 6 12.544 6.096 12.72 6.288C12.912 6.464 13.008 6.704 13.008 7.008V10.992H16.992Z" fill="#23232F" fill-opacity="0.24"/>
</svg>
