<svg width="41" height="40" viewBox="0 0 41 40" fill="none" xmlns="http://www.w3.org/2000/svg">
  <path fill-rule="evenodd" clip-rule="evenodd" d="M20.6666 40C31.7123 40 40.6666 31.0457 40.6666 20C40.6666 8.9543 31.7123 0 20.6666 0C9.62093 0 0.666626 8.9543 0.666626 20C0.666626 31.0457 9.62093 40 20.6666 40Z" fill="#F6F6F7"/>
  <path d="M28.0586 15.104C28.2506 15.152 28.3946 15.264 28.4906 15.44C28.6026 15.6 28.6586 15.784 28.6586 15.992V24.008C28.6586 24.44 28.4586 24.736 28.0586 24.896L21.0746 27.896C21.0266 27.96 20.8986 27.992 20.6906 27.992C20.6106 27.992 20.5306 27.984 20.4506 27.968C20.3866 27.952 20.3306 27.928 20.2826 27.896L13.2746 24.896C13.0826 24.848 12.9306 24.744 12.8186 24.584C12.7226 24.408 12.6746 24.216 12.6746 24.008V15.992C12.6746 15.784 12.7226 15.6 12.8186 15.44C12.9306 15.264 13.0826 15.152 13.2746 15.104L20.2826 12.104C20.4586 12.056 20.5946 12.032 20.6906 12.032C20.8026 12.032 20.9306 12.056 21.0746 12.104L28.0586 15.104ZM25.1786 15.992L20.6906 14.096L16.1786 15.992L20.6906 17.888L25.1786 15.992ZM19.6826 19.592L14.6666 17.504V23.288L19.6826 25.4V19.592ZM26.6666 17.6L21.6746 19.688V25.496L26.6666 23.408V17.6Z" fill="#949499"/>
</svg>
