<svg xmlns="http://www.w3.org/2000/svg" width="28" height="28" fill="none" viewBox="0 0 28 28">
    <path fill="#23232F" fill-opacity=".48" fill-rule="evenodd" d="M22.167 15.167h-2.334v-7c0-.7-.466-1.167-1.166-1.167h-3.5V4.667h-2.334V7h-3.5c-.7 0-1.166.467-1.166 1.167v7H5.833c-.7 0-1.166.466-1.166 1.166v5.834c0 .7.466 1.166 1.166 1.166h16.334c.7 0 1.166-.466 1.166-1.166v-5.834c0-.7-.466-1.166-1.166-1.166zM10.5 16.333v-7h7V21h-2.333v-3.5h-2.334V21H10.5v-4.667zm4.667-4.666h-2.334V14h2.334v-2.333z" clip-rule="evenodd"/>
</svg>
