<svg xmlns="http://www.w3.org/2000/svg" width="17" height="16" viewBox="0 0 17 16">
    <path fill="#23232F" fill-rule="nonzero" d="M7.167 2.667V4h2.666V2.667h2V4h1.334c.368 0 .666.299.666.667v8a.667.667 0 0 1-.666.666H3.833a.667.667 0 0 1-.666-.666v-8c0-.368.298-.667.666-.667h1.334V2.667h2zM12.5 6h-8v6h8V6zM7.167 9.333v1.334H5.833V9.333h1.334zm2 0v1.334H7.833V9.333h1.334zm2 0v1.334H9.833V9.333h1.334zm-4-2v1.334H5.833V7.333h1.334zm2 0v1.334H7.833V7.333h1.334zm2 0v1.334H9.833V7.333h1.334z" opacity=".8"/>
</svg>
