<svg xmlns="http://www.w3.org/2000/svg" width="24" height="24" viewBox="0 0 24 24">
    <path fill="#23232F" d="M15.932 14c.117 0 .23.041.32.116.213.177.241.492.065.704l-3.933 4.72c-.02.022-.04.044-.064.063-.212.177-.527.148-.704-.064L7.683 14.82c-.074-.09-.115-.203-.115-.32 0-.276.223-.5.5-.5zM11.68 4.397c.212-.177.527-.148.704.064l3.933 4.719c.074.09.115.203.115.32 0 .276-.223.5-.5.5H8.068c-.117 0-.23-.041-.32-.116-.213-.177-.241-.492-.065-.704l3.933-4.72c.02-.022.04-.044.064-.063z" opacity=".5"/>
</svg>
