<svg xmlns="http://www.w3.org/2000/svg" width="28" height="28" fill="none" viewBox="0 0 28 28">
    <path fill="#23232F" fill-opacity=".48" fill-rule="evenodd" d="M22.983 14.35L13.65 5.017c-.233-.234-.467-.35-.817-.35h-7c-.7 0-1.166.466-1.166 1.166v7c0 .35.116.584.35.817l9.333 9.333c.233.234.467.35.817.35.35 0 .583-.116.816-.35l7-7c.467-.466.467-1.166 0-1.633zm-7.816 6.183L7 12.367V7h5.367l8.166 8.167-5.366 5.366zm-3.5-10.033c0 .644-.523 1.167-1.167 1.167s-1.167-.523-1.167-1.167.523-1.167 1.167-1.167 1.167.523 1.167 1.167z" clip-rule="evenodd"/>
</svg>
