<svg xmlns="http://www.w3.org/2000/svg" width="24" height="24" viewBox="0 0 24 24">
    <path fill="#23232F" d="M12 6.5c.552 0 1 .448 1 1v4h2.5c.552 0 1 .448 1 1s-.448 1-1 1H12c-.553 0-1-.448-1-1v-5c0-.552.447-1 1-1zM11.4 3.523l-.042.003-.02.003-.095.008-.038.004.011-.001.027-.003.033-.003-.069.007-.113.013.101-.012-.107.013-.099.012.089-.011-.102.013-.026.004-.1.014.104-.015-.102.015-.092.015-.066.011-.105.02-.092.017.09-.018-.13.027.031-.007-.083.017-.066.015.026-.005-.12.027.055-.013-.055.013-.067.016-.051.014.052-.014-.089.023-.043.011-.047.013.007-.002.04-.011.08-.02-.113.03-.007.001-.012.003-.036.01.025-.007.011-.003.005-.001-.016.004-.082.024.057-.016c-.228.064-.454.14-.676.226l-.128.05-.2.086-.196.09-.061.03-.061.031-.096.049-.058.03-.078.042-.075.042-.066.038.041-.024-.046.026-.058.034-.097.058-.02.012-.013.008-.094.059-.001.001-.035.022-.044.029-.097.065.054-.037-.069.046.015-.01-.023.015-.004.003-.082.058-.035.024-.02.015-.033.023.031-.022-.213.159c-.082.063-.163.128-.243.196l-.175.15-.05.046-.05.046L6.9 5.5l-.07.067.02-.02-.035.034-.035.033.021-.021-.06.059-.013.014-.085.084-.03.032.015-.017-.054.056-.079.084.066-.069c-.336.353-.637.74-.9 1.152l-.188.315-.061.11.001-.005-.025.047.014-.025-.019.036.005-.011-.034.065-.049.093.038-.071-.042.081-.05.1.011-.021-.121.26c-.334.756-.539 1.558-.612 2.373v.003l-.009.103v.017l-.003.025-.003.054-.002.029-.003.051-.006.164c-.002.067-.003.133-.003.2v.13c.023 1.59.55 3.183 1.602 4.521l.153.189-1.533 1.285C3.25 15.351 2.52 13.218 2.5 11.092l.001-.148.006-.326c.05-1.267.349-2.47.848-3.563l.016-.035c.035-.075.07-.15.107-.223l.001-.003.035-.07.062-.12c.432-.83.993-1.605 1.68-2.296l.026-.026c.19-.19.388-.371.593-.544l.018-.015.035-.03c.065-.053.13-.107.197-.159l.003-.003.001-.001.008-.005.005-.005.004-.003.004-.002-.025.02c.135-.107.273-.21.414-.31l.07-.048.16-.109.058-.037c.228-.149.462-.287.702-.415l.073-.039.18-.092.038-.018c.063-.031.126-.061.19-.09.038-.019.076-.036.114-.053l.06-.027.116-.05.055-.023.146-.059.098-.038.166-.062.082-.03.14-.047.122-.04.202-.062.034-.01.171-.048.085-.022.04-.01.225-.055c.213-.05.426-.09.64-.124.142-.023.285-.042.429-.058l.083-.01.185-.016c.146-.012.292-.021.437-.027l.18-.004L12 1.5c.183 0 .365.005.546.015l.057.004c1.263.079 2.46.405 3.54.93l.115.056.063.032.165.086.076.042c.798.436 1.545.994 2.21 1.671.17.174.333.354.49.54l.015.018.006.006.02.023.066.08.043.055-.028-.034.106.132.116.15.03.043.06.081.051.07.065.094c.08.113.156.23.23.347.077.121.15.243.22.367.043.075.085.152.126.228l.02.037.052.101.052.102.045.093.04.085c.027.055.052.11.077.166l.041.094.059.137.047.116.058.147.033.088c.02.056.041.113.06.17l.03.085.048.147.043.136.037.127c.135.466.234.947.296 1.44.02.156.035.313.047.47.005.069.01.138.013.207.007.126.011.25.013.376V11c0 1.193-.219 2.335-.62 3.387l-.05.123c-.058.149-.12.296-.187.44l-.013.03-.082.173-.023.047-.024.048-.043.085c-.458.894-1.065 1.728-1.818 2.462-.098.096-.198.19-.3.281l-.028.025-.065.057-.118.102-.022.017-.136.113c-1.51 1.222-3.403 1.99-5.47 2.097v1.638c0 .275-.253.455-.475.34l-.06-.04-3.34-2.625c-.146-.131-.164-.377-.055-.537l.055-.063 3.34-2.625c.215-.172.485-.029.529.228l.006.072v1.609c1.745-.115 3.326-.827 4.543-1.932l.012-.013.004-.004.243-.23c.508-.509.944-1.089 1.29-1.725l.03-.055.006-.013.001-.002.032-.059.026-.053.006-.012.013-.025.015-.03.039-.078.01-.022.005-.013.037-.075.016-.039.134-.31c.272-.681.442-1.395.508-2.12l.009-.106-.006.053.005-.059.008-.11.001-.019v-.006l.002-.032.004-.08.001-.017c.003-.062.004-.124.005-.186l-.001.069c.004-.158.003-.315-.003-.472l-.002-.03v-.007l-.002-.035v-.02l-.003-.035v-.016l-.003-.03-.003-.053-.002-.025v-.006l-.005-.057v-.015l-.002-.016-.002-.026-.002-.021-.004-.04-.005-.054-.012-.114-.007-.048-.003-.02-.007-.06-.007-.052-.01-.064-.009-.059v-.004l-.012-.071-.017-.091-.005-.033.012.068c-.016-.09-.034-.18-.053-.27l-.002-.004v-.005c-.068-.312-.159-.63-.272-.943l-.014-.038-.018-.048-.013-.036-.007-.017-.01-.026-.019-.049-.022-.055-.038-.092-.01-.026-.016-.036-.023-.053v-.001l-.01-.02-.019-.042-.006-.015-.015-.031-.038-.082-.004-.008-.037-.076-.022-.044h.001l-.004-.007-.006-.011-.008-.017-.005-.01-.029-.057-.007-.013-.01-.019-.03-.058-.02-.035-.012-.023.002.005-.015-.028-.02-.036-.016-.03-.01-.016-.14-.237c-.051-.084-.105-.167-.16-.25l-.014-.019-.003-.004-.016-.024-.03-.045-.004-.004-.026-.037-.042-.06-.01-.013-.004-.006-.023-.031-.014-.019-.013-.018-.08-.108-.009-.009-.023-.03-.06-.075-.006-.009.043.054c-.108-.137-.222-.271-.34-.4-.108-.12-.218-.235-.332-.345-.533-.516-1.142-.954-1.809-1.295l-.04-.02-.087-.044.015.008-.04-.02.025.012-.025-.012-.02-.01-.005-.002-.087-.04-.12-.055-.085-.037.08.035-.109-.047-.07-.03.064.028c-.714-.3-1.468-.486-2.232-.555l-.127-.01-.11-.008-.101-.005-.127-.004h-.026l-.07-.002h-.083.082l.097.002-.139-.002-.09-.001-.239.004-.113.004-.017.002-.06.003-.023.002.007-.001-.016.001h.01l-.048.002.033-.002-.114.008z" opacity=".5"/>
</svg>
