<svg xmlns="http://www.w3.org/2000/svg" width="36" height="37" viewBox="0 0 36 37">
    <g fill="none">
        <path d="M5.128 0h25.744c1.783 0 2.43.186 3.082.534.652.349 1.163.86 1.512 1.512.348.652.534 1.299.534 3.082v25.744c0 1.783-.186 2.43-.534 3.082-.349.652-.86 1.163-1.512 1.512-.652.348-1.299.534-3.082.534H5.128c-1.783 0-2.43-.186-3.082-.534-.652-.349-1.163-.86-1.512-1.512C.186 33.302 0 32.655 0 30.872V5.128c0-1.783.186-2.43.534-3.082.349-.652.86-1.163 1.512-1.512C2.698.186 3.345 0 5.128 0z" opacity=".05" transform="translate(0 .5)"/>
        <path d="M5.128 0h25.744c1.783 0 2.43.186 3.082.534.652.349 1.163.86 1.512 1.512.348.652.534 1.299.534 3.082v25.744c0 1.783-.186 2.43-.534 3.082-.349.652-.86 1.163-1.512 1.512-.652.348-1.299.534-3.082.534H5.128c-1.783 0-2.43-.186-3.082-.534-.652-.349-1.163-.86-1.512-1.512C.186 33.302 0 32.655 0 30.872V5.128c0-1.783.186-2.43.534-3.082.349-.652.86-1.163 1.512-1.512C2.698.186 3.345 0 5.128 0z" transform="translate(0 .5)"/>
        <g fill="#23232F">
            <path d="M18 6c-.4-.4-1-.4-1.4 0L12 10.6 7.4 6c-.4-.4-1-.4-1.4 0-.4.4-.4 1 0 1.4l4.6 4.6L6 16.6c-.4.4-.4 1 0 1.4.2.2.4.3.7.3.3 0 .5-.1.7-.3l4.6-4.6 4.6 4.6c.2.2.5.3.7.3.2 0 .5-.1.7-.3.4-.4.4-1 0-1.4L13.4 12 18 7.4c.4-.4.4-1 0-1.4z" transform="translate(0 .5) translate(6 6)"/>
        </g>
    </g>
</svg>
