<svg xmlns="http://www.w3.org/2000/svg" width="40" height="41" viewBox="0 0 40 41">
    <path fill="#23232F" d="M14.845 8c1.541 0 2.383 1.798 1.397 2.982l-1.855 2.224 3.418 3.076c2.34 2.107 3.726 5.066 3.852 8.2l.01.472v7.213c0 .92-.747 1.666-1.667 1.666-.855 0-1.56-.643-1.655-1.472l-.012-.194v-7.213c0-2.215-.88-4.332-2.438-5.89l-.32-.304-3.323-2.991-1.311 1.575c-.964 1.156-2.81.701-3.16-.72l-.03-.145-1.06-6.362C6.507 9.009 7.361 8 8.484 8zM33.18 8c1.123 0 1.977 1.009 1.793 2.117l-1.06 6.362c-.256 1.534-2.194 2.06-3.19.865l-1.56-1.873-4.788 3.83c-.718.575-1.767.459-2.342-.26-.53-.663-.472-1.608.105-2.202l.155-.14 4.735-3.79-1.605-1.927c-.955-1.146-.198-2.867 1.249-2.976L26.818 8z" opacity=".25"/>
</svg>
