<svg width="41" height="40" viewBox="0 0 41 40" fill="none" xmlns="http://www.w3.org/2000/svg">
  <path fill-rule="evenodd" clip-rule="evenodd" d="M20.3333 40C31.3789 40 40.3333 31.0457 40.3333 20C40.3333 8.9543 31.3789 0 20.3333 0C9.28756 0 0.333252 8.9543 0.333252 20C0.333252 31.0457 9.28756 40 20.3333 40Z" fill="#F6F6F7"/>
  <path d="M20.3333 12.008C21.0373 12.008 21.7253 12.104 22.3973 12.296C23.0693 12.472 23.7013 12.736 24.2933 13.088C24.9013 13.424 25.4533 13.84 25.9493 14.336C26.4453 14.816 26.8693 15.36 27.2213 15.968C27.5893 16.592 27.8613 17.248 28.0373 17.936C28.2293 18.608 28.3253 19.296 28.3253 20C28.3253 20.688 28.2293 21.376 28.0373 22.064C27.8613 22.752 27.5893 23.408 27.2213 24.032C26.8693 24.64 26.4453 25.192 25.9493 25.688C25.4533 26.168 24.9013 26.576 24.2933 26.912C23.7013 27.264 23.0693 27.528 22.3973 27.704C21.7253 27.896 21.0373 27.992 20.3333 27.992C19.6293 27.992 18.9413 27.896 18.2693 27.704C17.5973 27.528 16.9573 27.264 16.3493 26.912C15.7573 26.576 15.2133 26.168 14.7173 25.688C14.2213 25.192 13.7973 24.64 13.4453 24.032C13.0773 23.408 12.7973 22.752 12.6053 22.064C12.4293 21.376 12.3413 20.688 12.3413 20C12.3413 19.296 12.4293 18.608 12.6053 17.936C12.7973 17.248 13.0773 16.592 13.4453 15.968C13.7973 15.36 14.2213 14.816 14.7173 14.336C15.2133 13.84 15.7573 13.424 16.3493 13.088C16.9573 12.736 17.5973 12.472 18.2693 12.296C18.9413 12.104 19.6293 12.008 20.3333 12.008ZM20.3333 26C21.1653 26 21.9413 25.84 22.6613 25.52C23.3973 25.2 24.0373 24.768 24.5813 24.224C25.1253 23.68 25.5493 23.04 25.8533 22.304C26.1733 21.568 26.3333 20.792 26.3333 19.976C26.3333 19.144 26.1733 18.368 25.8533 17.648C25.5493 16.912 25.1253 16.28 24.5813 15.752C24.0373 15.208 23.3973 14.784 22.6613 14.48C21.9413 14.16 21.1733 14 20.3573 14C19.5253 14 18.7413 14.16 18.0053 14.48C17.2853 14.784 16.6533 15.208 16.1093 15.752C15.5653 16.296 15.1333 16.936 14.8133 17.672C14.4933 18.392 14.3333 19.16 14.3333 19.976C14.3333 20.792 14.4933 21.568 14.8133 22.304C15.1333 23.04 15.5653 23.68 16.1093 24.224C16.6533 24.768 17.2853 25.2 18.0053 25.52C18.7413 25.84 19.5173 26 20.3333 26ZM22.7333 21.008H17.9333C17.7733 21.008 17.6293 20.952 17.5013 20.84C17.3893 20.712 17.3333 20.568 17.3333 20.408V19.592C17.3333 19.416 17.3893 19.272 17.5013 19.16C17.6293 19.048 17.7733 18.992 17.9333 18.992H22.7333C23.1333 18.992 23.3333 19.192 23.3333 19.592V20.408C23.3333 20.568 23.2693 20.712 23.1413 20.84C23.0293 20.952 22.8933 21.008 22.7333 21.008Z" fill="#949499"/>
</svg>

