<svg width="16" height="16" viewBox="0 0 16 16" fill="none" xmlns="http://www.w3.org/2000/svg">
  <path d="M8 0.0079999C8.704 0.0079999 9.392 0.104 10.064 0.295999C10.736 0.472 11.368 0.736 11.96 1.088C12.568 1.424 13.12 1.84 13.616 2.336C14.112 2.816 14.536 3.36 14.888 3.968C15.256 4.592 15.528 5.248 15.704 5.936C15.896 6.608 15.992 7.296 15.992 8C15.992 8.688 15.896 9.376 15.704 10.064C15.528 10.752 15.256 11.408 14.888 12.032C14.536 12.64 14.112 13.192 13.616 13.688C13.12 14.168 12.568 14.576 11.96 14.912C11.368 15.264 10.736 15.528 10.064 15.704C9.392 15.896 8.704 15.992 8 15.992C7.296 15.992 6.608 15.896 5.936 15.704C5.264 15.528 4.624 15.264 4.016 14.912C3.424 14.576 2.88 14.168 2.384 13.688C1.888 13.192 1.464 12.64 1.112 12.032C0.744 11.408 0.464 10.752 0.272 10.064C0.0960002 9.376 0.00800025 8.688 0.00800025 8C0.00800025 7.296 0.0960002 6.608 0.272 5.936C0.464 5.248 0.744 4.592 1.112 3.968C1.464 3.36 1.888 2.816 2.384 2.336C2.88 1.84 3.424 1.424 4.016 1.088C4.624 0.736 5.264 0.472 5.936 0.295999C6.608 0.104 7.296 0.0079999 8 0.0079999ZM8 14C8.832 14 9.608 13.84 10.328 13.52C11.064 13.2 11.704 12.768 12.248 12.224C12.792 11.68 13.216 11.04 13.52 10.304C13.84 9.568 14 8.792 14 7.976C14 7.144 13.84 6.368 13.52 5.648C13.216 4.912 12.792 4.28 12.248 3.752C11.704 3.208 11.064 2.784 10.328 2.48C9.608 2.16 8.84 2 8.024 2C7.192 2 6.408 2.16 5.672 2.48C4.952 2.784 4.32 3.208 3.776 3.752C3.232 4.296 2.8 4.936 2.48 5.672C2.16 6.392 2 7.16 2 7.976C2 8.792 2.16 9.568 2.48 10.304C2.8 11.04 3.232 11.68 3.776 12.224C4.32 12.768 4.952 13.2 5.672 13.52C6.408 13.84 7.184 14 8 14ZM10.4 9.008H5.6C5.44 9.008 5.296 8.952 5.168 8.84C5.056 8.712 5 8.568 5 8.408V7.592C5 7.416 5.056 7.272 5.168 7.16C5.296 7.048 5.44 6.992 5.6 6.992H10.4C10.8 6.992 11 7.192 11 7.592V8.408C11 8.568 10.936 8.712 10.808 8.84C10.696 8.952 10.56 9.008 10.4 9.008Z" fill="#949499"/>
</svg>
