<svg width="18" height="12" viewBox="0 0 18 12" fill="none" xmlns="http://www.w3.org/2000/svg">
<path d="M0.6 0C0.44 0 0.296 0.0559998 0.168 0.167999C0.056 0.279999 0 0.423999 0 0.599999V1.392C0 1.552 0.056 1.696 0.168 1.824C0.296 1.936 0.44 1.992 0.6 1.992H17.4C17.576 1.992 17.72 1.936 17.832 1.824C17.944 1.696 18 1.552 18 1.392V0.599999C18 0.423999 17.944 0.279999 17.832 0.167999C17.72 0.0559998 17.576 0 17.4 0H0.6ZM0 11.4C0 11.56 0.056 11.704 0.168 11.832C0.296 11.944 0.44 12 0.6 12H5.4C5.576 12 5.72 11.944 5.832 11.832C5.944 11.704 6 11.56 6 11.4V10.608C6 10.432 5.944 10.288 5.832 10.176C5.72 10.064 5.576 10.008 5.4 10.008H0.6C0.44 10.008 0.296 10.064 0.168 10.176C0.056 10.288 0 10.432 0 10.608V11.4ZM1.008 7.008C0.736 7.008 0.496 6.912 0.288 6.72C0.0960001 6.512 0 6.272 0 6C0 5.728 0.0960001 5.496 0.288 5.304C0.496 5.096 0.736 4.992 1.008 4.992H10.992C11.264 4.992 11.496 5.096 11.688 5.304C11.896 5.496 12 5.728 12 6C12 6.272 11.896 6.512 11.688 6.72C11.496 6.912 11.264 7.008 10.992 7.008H1.008Z" fill="#9B9BA1"/>
</svg>
