<svg xmlns="http://www.w3.org/2000/svg" width="24" height="24" viewBox="0 0 24 24">
    <defs>
        <filter id="prefix__a" width="107.3%" height="113.2%" x="-3.6%" y="-6.6%" filterUnits="objectBoundingBox">
            <feOffset dy="1" in="SourceAlpha" result="shadowOffsetOuter1"/>
            <feGaussianBlur in="shadowOffsetOuter1" result="shadowBlurOuter1" stdDeviation=".5"/>
            <feColorMatrix in="shadowBlurOuter1" result="shadowMatrixOuter1" values="0 0 0 0 0 0 0 0 0 0 0 0 0 0 0 0 0 0 0.05 0"/>
            <feOffset in="SourceAlpha" result="shadowOffsetOuter2"/>
            <feGaussianBlur in="shadowOffsetOuter2" result="shadowBlurOuter2" stdDeviation="1.5"/>
            <feColorMatrix in="shadowBlurOuter2" result="shadowMatrixOuter2" values="0 0 0 0 0 0 0 0 0 0 0 0 0 0 0 0 0 0 0.05 0"/>
            <feMerge>
                <feMergeNode in="shadowMatrixOuter1"/>
                <feMergeNode in="shadowMatrixOuter2"/>
                <feMergeNode in="SourceGraphic"/>
            </feMerge>
        </filter>
    </defs>
    <g fill="#23232F" filter="url(#prefix__a)" opacity=".5" transform="translate(-20 -20)">
        <path d="M32 24c-4.4 0-8 3.6-8 8s3.6 8 8 8 8-3.6 8-8-3.6-8-8-8zm5.9 7H36c-.1-1.5-.4-2.9-.8-4.1 1.4.9 2.4 2.4 2.7 4.1zM32 38c-.6 0-1.8-1.9-2-5h4c-.2 3.1-1.4 5-2 5zm-2-7c.2-3.1 1.3-5 2-5s1.8 1.9 2 5h-4zm-1.1-4.1c-.5 1.2-.8 2.6-.9 4.1h-1.9c.3-1.7 1.3-3.2 2.8-4.1zM26.1 33H28c.1 1.5.4 2.9.8 4.1-1.4-.9-2.4-2.4-2.7-4.1zm9 4.1c.5-1.2.7-2.6.8-4.1h1.9c-.2 1.7-1.2 3.2-2.7 4.1z"/>
    </g>
</svg>
