<svg width="24" height="24" viewBox="0 0 24 24" fill="none" xmlns="http://www.w3.org/2000/svg">
<path d="M12.0004 5.5C11.62 5.49947 11.2402 5.52815 10.8642 5.58577L10.6461 5.61921C10.5838 5.60374 10.5248 5.57671 10.4724 5.53951C10.4173 5.50043 10.3705 5.45088 10.3345 5.39369C10.2986 5.3365 10.2743 5.27279 10.2629 5.20621C10.2516 5.13962 10.2535 5.07145 10.2685 5.00559C10.2836 4.93974 10.3114 4.87749 10.3505 4.8224C10.3896 4.76731 10.4391 4.72046 10.4963 4.68452C10.5535 4.64858 10.6172 4.62425 10.6838 4.61293L10.6838 4.61294L10.6876 4.61227C11.1199 4.53536 11.5584 4.49778 11.9975 4.5H12C15.8462 4.5 19.4958 7.23576 21.4607 11.7975C21.4875 11.8599 21.5013 11.9271 21.5013 11.995C21.5013 12.0629 21.4875 12.1301 21.4607 12.1925L21.4598 12.1945C21.1312 12.9678 20.7393 13.7127 20.2882 14.4215L20.284 14.4282L20.28 14.4349C20.2243 14.5288 20.1394 14.6018 20.0384 14.6429C19.9373 14.6841 19.8255 14.691 19.7201 14.6627C19.6148 14.6343 19.5215 14.5723 19.4547 14.486C19.3881 14.4 19.3513 14.2946 19.35 14.1858C19.3494 14.0885 19.3772 13.9931 19.43 13.9113L19.43 13.9113L19.4327 13.907C19.777 13.362 20.0874 12.7963 20.3623 12.2132L20.4625 12.0005L20.3627 11.7877C18.5704 7.9663 15.4361 5.50017 12.0004 5.5ZM12.0004 5.5C12.0002 5.5 12.0001 5.5 12 5.5V6L12.0007 5.5C12.0006 5.5 12.0005 5.5 12.0004 5.5ZM5.73676 7.16023L6.1045 6.80623L5.74298 6.44588L2.64356 3.35645C2.64348 3.35638 2.64341 3.3563 2.64334 3.35623C2.54894 3.26172 2.49591 3.13359 2.49591 3C2.49591 2.86631 2.54902 2.73809 2.64356 2.64356C2.69036 2.59675 2.74594 2.55962 2.80709 2.53428C2.86825 2.50895 2.9338 2.49591 3 2.49591C3.0662 2.49591 3.13175 2.50895 3.19291 2.53428C3.25407 2.55962 3.30964 2.59675 3.35645 2.64356L21.3564 20.6436L21.3579 20.645C21.4048 20.6915 21.442 20.7468 21.4673 20.8077C21.4927 20.8686 21.5058 20.934 21.5058 21C21.5058 21.066 21.4927 21.1314 21.4673 21.1923C21.442 21.2532 21.4048 21.3085 21.3579 21.355L21.355 21.3579C21.3085 21.4048 21.2532 21.442 21.1923 21.4673C21.1314 21.4927 21.066 21.5058 21 21.5058C20.934 21.5058 20.8686 21.4927 20.8077 21.4673C20.7468 21.442 20.6915 21.4048 20.645 21.3579L20.6441 21.357L17.4041 18.107L17.1151 17.8171L16.7739 18.0432C15.357 18.9818 13.6977 19.4879 11.9982 19.5C8.15257 19.4992 4.50375 16.7634 2.53922 12.2022L2.53826 12.2C2.51073 12.1369 2.49652 12.0688 2.49652 12C2.49652 11.9312 2.51073 11.8631 2.53826 11.8L2.53828 11.8L2.53996 11.7961C3.28348 10.0518 4.3707 8.47519 5.73676 7.16023ZM10.4236 11.1264L9.82335 10.5262L9.58937 11.3422C9.52779 11.5569 9.49769 11.7795 9.5 12.0029C9.50077 12.6649 9.76408 13.2996 10.2322 13.7678C10.7004 14.2359 11.3351 14.4992 11.9972 14.5C12.2205 14.5023 12.4431 14.4722 12.6578 14.4106L13.4738 14.1767L12.8736 13.5764L10.4236 11.1264ZM12 18.5V18.5L12.0057 18.5C13.3564 18.4846 14.6795 18.1161 15.8436 17.4309L16.404 17.1011L15.9413 16.6442L14.3513 15.0742L14.0863 14.8126L13.7597 14.9915C13.0958 15.3553 12.3318 15.494 11.5823 15.3868C10.8329 15.2796 10.1384 14.9323 9.60308 14.3969C9.06775 13.8616 8.72043 13.1671 8.61322 12.4177C8.50602 11.6682 8.64471 10.9042 9.0085 10.2403L9.18757 9.91343L8.92554 9.64844L7.15554 7.85844L6.8115 7.51052L6.45622 7.84694C5.27227 8.96804 4.31736 10.3084 3.64455 11.7937L3.54972 12.003L3.64685 12.2113C5.42931 16.0338 8.56413 18.5 12 18.5Z" fill="#5D4037" stroke="#5D4037"/>
</svg>
