<svg width="19" height="18" viewBox="0 0 19 18" fill="none" xmlns="http://www.w3.org/2000/svg">
<path d="M0.5 9C0.5 7.368 0.908 5.856 1.724 4.464C2.524 3.104 3.604 2.024 4.964 1.224C6.356 0.408 7.868 0 9.5 0C11.132 0 12.644 0.408 14.036 1.224C15.396 2.024 16.476 3.104 17.276 4.464C18.092 5.856 18.5 7.368 18.5 9C18.5 10.632 18.092 12.144 17.276 13.536C16.476 14.896 15.396 15.976 14.036 16.776C12.644 17.592 11.132 18 9.5 18C7.868 18 6.356 17.592 4.964 16.776C3.604 15.976 2.524 14.896 1.724 13.536C0.908 12.144 0.5 10.632 0.5 9ZM16.508 9C16.508 7.736 16.188 6.56 15.548 5.472C14.924 4.416 14.084 3.576 13.028 2.952C11.94 2.312 10.764 1.992 9.5 1.992C8.236 1.992 7.06 2.312 5.972 2.952C4.916 3.576 4.076 4.416 3.452 5.472C2.812 6.56 2.492 7.736 2.492 9C2.492 10.264 2.812 11.44 3.452 12.528C4.076 13.584 4.916 14.424 5.972 15.048C7.06 15.688 8.236 16.008 9.5 16.008C10.764 16.008 11.94 15.688 13.028 15.048C14.084 14.424 14.924 13.584 15.548 12.528C16.188 11.44 16.508 10.264 16.508 9ZM9.5 7.176C9.756 7.176 9.98 7.264 10.172 7.44C10.364 7.6 10.468 7.808 10.484 8.064L10.508 8.184V13.08C10.508 13.352 10.404 13.592 10.196 13.8C10.004 13.992 9.772 14.088 9.5 14.088C9.244 14.088 9.02 14.008 8.828 13.848C8.636 13.672 8.532 13.456 8.516 13.2L8.492 13.08V8.184C8.492 7.912 8.588 7.68 8.78 7.488C8.988 7.28 9.228 7.176 9.5 7.176ZM10.508 4.992C10.508 5.264 10.404 5.504 10.196 5.712C10.004 5.904 9.772 6 9.5 6C9.228 6 8.988 5.904 8.78 5.712C8.588 5.504 8.492 5.264 8.492 4.992C8.492 4.72 8.588 4.488 8.78 4.296C8.988 4.104 9.228 4.008 9.5 4.008C9.772 4.008 10.004 4.104 10.196 4.296C10.404 4.488 10.508 4.72 10.508 4.992Z" fill="#9B9BA1"/>
</svg>
