<svg xmlns="http://www.w3.org/2000/svg" width="48" height="48" viewBox="0 0 48 48">
    <g fill="#23232F">
        <circle cx="24" cy="24" r="24" opacity=".05"/>
        <path d="M24 9c8.284 0 15 6.716 15 15 0 8.284-6.716 15-15 15-8.284 0-15-6.716-15-15 0-8.284 6.716-15 15-15zm0 3.333c-6.443 0-11.667 5.224-11.667 11.667S17.557 35.667 24 35.667 35.667 30.443 35.667 24 30.443 12.333 24 12.333zm0 8.637c.855 0 1.56.643 1.655 1.472l.012.194v8.182c0 .92-.747 1.667-1.667 1.667-.855 0-1.56-.644-1.655-1.472l-.012-.195v-8.182c0-.92.747-1.666 1.667-1.666zm0-5.303c.92 0 1.667.746 1.667 1.666 0 .92-.747 1.667-1.667 1.667s-1.667-.746-1.667-1.667c0-.92.747-1.666 1.667-1.666z" opacity=".25"/>
    </g>
</svg>
