<svg xmlns="http://www.w3.org/2000/svg" width="28" height="28" fill="none" viewBox="0 0 28 28">
    <path fill="#23232F" fill-opacity=".48" fill-rule="evenodd" d="M9.333 8.75c0 .966-.783 1.75-1.75 1.75-.966 0-1.75-.784-1.75-1.75S6.617 7 7.583 7c.967 0 1.75.784 1.75 1.75zm0 5.833c0 .967-.783 1.75-1.75 1.75-.966 0-1.75-.783-1.75-1.75 0-.966.784-1.75 1.75-1.75.967 0 1.75.784 1.75 1.75zm-1.75 7.584c.967 0 1.75-.784 1.75-1.75 0-.967-.783-1.75-1.75-1.75-.966 0-1.75.783-1.75 1.75 0 .966.784 1.75 1.75 1.75zm15.75-14.584H11.667v2.334h11.666V7.583zm-11.666 5.834h11.666v2.333H11.667v-2.333zm11.666 5.833H11.667v2.333h11.666V19.25z" clip-rule="evenodd"/>
</svg>
