<svg width="14" height="14" viewBox="0 0 14 14" fill="none" xmlns="http://www.w3.org/2000/svg">
<path fill-rule="evenodd" clip-rule="evenodd" d="M3.50004 7C3.50004 6.06667 3.85004 5.19167 4.55004 4.49167C4.78337 4.25833 4.78337 3.90833 4.55004 3.675C4.31671 3.44167 3.96671 3.44167 3.73337 3.675C2.85837 4.55 2.33337 5.71667 2.33337 7C2.33337 8.28333 2.85837 9.45 3.73337 10.325C3.85004 10.4417 4.02504 10.5 4.14171 10.5C4.31671 10.5 4.43337 10.4417 4.55004 10.325C4.78337 10.0917 4.78337 9.74167 4.55004 9.50833C3.85004 8.80833 3.50004 7.93333 3.50004 7ZM7.00004 8.75C7.96654 8.75 8.75004 7.9665 8.75004 7C8.75004 6.0335 7.96654 5.25 7.00004 5.25C6.03354 5.25 5.25004 6.0335 5.25004 7C5.25004 7.9665 6.03354 8.75 7.00004 8.75ZM9.45004 3.675C9.68338 3.44167 10.0334 3.44167 10.2667 3.675C11.1417 4.55 11.6667 5.71667 11.6667 7C11.6667 8.28333 11.1417 9.45 10.2667 10.325C10.15 10.4417 10.0334 10.5 9.85838 10.5C9.74171 10.5 9.56671 10.4417 9.45004 10.325C9.21671 10.0917 9.21671 9.74167 9.45004 9.50833C10.15 8.80833 10.5 7.93333 10.5 7C10.5 6.06667 10.15 5.19167 9.45004 4.49167C9.21671 4.25833 9.21671 3.90833 9.45004 3.675Z" fill="#23232F" fill-opacity="0.8"/>
</svg>
