<svg xmlns="http://www.w3.org/2000/svg" width="24" height="24" fill="none" viewBox="0 0 24 24">
    <path fill="#23232F" fill-opacity=".32" fill-rule="evenodd" d="M6 12c0-1.6.6-3.1 1.8-4.3.4-.4.4-1 0-1.4-.4-.4-1-.4-1.4 0C4.9 7.8 4 9.8 4 12s.9 4.2 2.4 5.7c.2.2.5.3.7.3.3 0 .5-.1.7-.3.4-.4.4-1 0-1.4C6.6 15.1 6 13.6 6 12zm6 3c1.657 0 3-1.343 3-3s-1.343-3-3-3-3 1.343-3 3 1.343 3 3 3zm4.2-8.7c.4-.4 1-.4 1.4 0C19.1 7.8 20 9.8 20 12s-.9 4.2-2.4 5.7c-.2.2-.4.3-.7.3-.2 0-.5-.1-.7-.3-.4-.4-.4-1 0-1.4 1.2-1.2 1.8-2.7 1.8-4.3 0-1.6-.6-3.1-1.8-4.3-.4-.4-.4-1 0-1.4z" clip-rule="evenodd"/>
</svg>
