<svg width="15" height="17" viewBox="0 0 15 17" fill="none" xmlns="http://www.w3.org/2000/svg">
<path d="M0.992 6.992C0.992 5.712 1.312 4.536 1.952 3.464C2.56 2.408 3.4 1.568 4.472 0.943999C5.544 0.32 6.72 0.0079999 8 0.0079999C9.28 0.0079999 10.456 0.32 11.528 0.943999C12.6 1.568 13.432 2.408 14.024 3.464C14.648 4.536 14.944 5.712 14.912 6.992C14.912 7.952 14.728 8.864 14.36 9.728C14.008 10.592 13.488 11.352 12.8 12.008C12.8 12.04 12.368 12.448 11.504 13.232C10.8 13.872 10.072 14.52 9.32 15.176L8.6 15.8C8.456 15.96 8.256 16.04 8 16.04C7.744 16.04 7.512 15.96 7.304 15.8C7.128 15.624 6.424 14.992 5.192 13.904C4.712 13.456 4.096 12.896 3.344 12.224L3.104 12.008C2.416 11.352 1.888 10.592 1.52 9.728C1.168 8.864 0.992 7.952 0.992 6.992ZM6.008 6.992C6.008 7.552 6.2 8.032 6.584 8.432C6.984 8.816 7.456 9.008 8 9.008C8.544 9.008 9.008 8.816 9.392 8.432C9.792 8.032 9.992 7.552 9.992 6.992C9.992 6.432 9.8 5.96 9.416 5.576C9.032 5.192 8.56 5 8 5C7.456 5 6.984 5.192 6.584 5.576C6.2 5.96 6.008 6.432 6.008 6.992Z" fill="#949499"/>
</svg>
