<svg xmlns="http://www.w3.org/2000/svg" width="16" height="16" fill="none" viewBox="0 0 16 16">
    <path fill="#23232F" fill-opacity=".8" fill-rule="evenodd" d="M11.07 2.81c-.264-.208-.624-.19-.87.057-.267.267-.267.667 0 .933l.867.867H4c-.429 0-.667.295-.667.667 0 .4.267.666.667.666h7.067l-.867.867-.057.064c-.208.263-.19.623.057.87.133.133.267.2.467.2s.333-.067.466-.2l2-2 .057-.064c.208-.264.19-.624-.057-.87l-2-2-.063-.057zM5.8 8.2c-.267-.266-.667-.266-.933 0l-2 2-.057.064c-.208.264-.19.623.057.87l2 2 .057.053c.115.098.238.147.41.147.2 0 .333-.067.466-.2.267-.267.267-.667 0-.934l-.867-.866H12l.084-.004c.353-.035.583-.292.583-.663 0-.4-.267-.667-.667-.667H4.933l.867-.866.057-.064c.208-.264.19-.624-.057-.87z" clip-rule="evenodd"/>
</svg>
