<svg xmlns="http://www.w3.org/2000/svg" width="28" height="28" fill="none" viewBox="0 0 28 28">
    <path fill="#23232F" fill-opacity=".48" fill-rule="evenodd" d="M19.372 4.917c-.462-.364-1.091-.331-1.522.1-.467.466-.467 1.166 0 1.633l1.517 1.517H7c-.75 0-1.167.516-1.167 1.166 0 .7.467 1.167 1.167 1.167h12.367l-1.517 1.517-.1.111c-.364.462-.33 1.091.1 1.522.233.233.467.35.817.35.35 0 .583-.117.816-.35l3.5-3.5.1-.112c.364-.461.331-1.09-.1-1.521l-3.5-3.5-.111-.1zM10.15 14.35c-.467-.467-1.167-.467-1.633 0l-3.5 3.5-.1.112c-.364.461-.331 1.09.1 1.521l3.5 3.5.1.093c.202.172.416.257.716.257.35 0 .584-.116.817-.35.467-.466.467-1.166 0-1.633l-1.517-1.517H21l.146-.007c.618-.06 1.02-.51 1.02-1.16 0-.7-.466-1.166-1.166-1.166H8.633l1.517-1.517.1-.111c.364-.462.33-1.091-.1-1.522z" clip-rule="evenodd"/>
</svg>
