<svg width="14" height="16" viewBox="0 0 14 16" fill="none" xmlns="http://www.w3.org/2000/svg">
  <path transform="rotate(180 7 8)" d="M6.568 0.415999C6.696 0.303999 6.848 0.248 7.024 0.248C7.2 0.248 7.336 0.303999 7.432 0.415999L13.288 6.272C13.4 6.384 13.456 6.528 13.456 6.704C13.456 6.864 13.4 7 13.288 7.112L12.736 7.664C12.624 7.776 12.488 7.832 12.328 7.832C12.2 7.832 12.048 7.776 11.872 7.664L8.008 3.8V15.392C8.008 15.552 7.952 15.688 7.84 15.8C7.728 15.928 7.584 15.992 7.408 15.992H6.592C6.432 15.992 6.288 15.928 6.16 15.8C6.048 15.688 5.992 15.552 5.992 15.392V3.8L2.128 7.664C2.016 7.776 1.88 7.832 1.72 7.832C1.576 7.832 1.432 7.776 1.288 7.664L0.736 7.112C0.624 7 0.568 6.864 0.568 6.704C0.568 6.528 0.624 6.384 0.736 6.272L6.568 0.415999Z" fill="#23232F" fill-opacity="0.64"/>
</svg>
