<svg width="16" height="16" viewBox="0 0 16 16" fill="none" xmlns="http://www.w3.org/2000/svg">
  <path d="M4.712 1.808C4.712 1.592 4.64 1.376 4.496 1.208C4.376 1.064 4.208 0.991999 3.992 0.991999H0.8C0.608 0.991999 0.416 1.088 0.2 1.304C0.08 1.424 0.00800025 1.592 0.00800025 1.808V4.208C0.00800025 4.376 0.00800025 4.496 0.0320003 4.568C0.0560004 4.688 0.128 4.76 0.2 4.808L0.296 4.856C0.464 4.952 0.632 5 0.8 5H3.896C4.112 5 4.4 4.928 4.496 4.808C4.64 4.64 4.712 4.472 4.712 4.304V1.808ZM11.312 4.304C11.312 4.496 11.408 4.712 11.504 4.808C11.624 4.928 11.792 5 12.008 5H15.2C15.368 5 15.536 4.952 15.704 4.856L15.8 4.808C15.92 4.64 15.992 4.472 15.992 4.304V1.808C15.992 1.64 15.944 1.472 15.848 1.304L15.8 1.208C15.68 1.064 15.512 0.991999 15.296 0.991999H12.104C11.936 0.991999 11.624 1.184 11.504 1.304C11.384 1.424 11.312 1.592 11.312 1.808V4.304ZM10.304 1.688C10.304 1.304 9.992 0.991999 9.608 0.991999H6.392C6.176 0.991999 6.008 1.088 5.912 1.304C5.768 1.424 5.696 1.592 5.696 1.808V4.208C5.696 4.52 5.72 4.616 5.912 4.808C6.032 4.928 6.2 5 6.392 5H9.608C9.68 5 9.824 4.904 9.92 4.904C9.992 4.904 9.992 4.856 9.992 4.688C10.112 4.688 10.208 4.592 10.208 4.496C10.28 4.424 10.304 4.328 10.304 4.208V1.688ZM0.8 6.008C0.632 6.008 0.464 6.056 0.296 6.152L0.2 6.2C0.08 6.32 0.00800025 6.488 0.00800025 6.704V9.2C0.00800025 9.464 0.08 9.584 0.296 9.8C0.392 9.896 0.608 9.992 0.8 9.992H3.896C4.136 9.992 4.304 9.896 4.4 9.704C4.496 9.608 4.592 9.392 4.592 9.2V6.704C4.592 6.296 4.304 6.008 3.896 6.008H0.8ZM10.304 6.8C10.304 6.608 10.208 6.392 10.112 6.296C9.944 6.176 9.776 6.104 9.608 6.104H6.392C6.2 6.104 6.032 6.176 5.912 6.296C5.792 6.392 5.696 6.608 5.696 6.8V9.296C5.696 9.488 5.792 9.704 5.912 9.8C6.032 9.92 6.2 9.992 6.392 9.992H9.608C9.728 9.992 9.8 9.968 9.896 9.8C9.968 9.8 10.088 9.728 10.208 9.608C10.28 9.536 10.304 9.392 10.304 9.2V6.8ZM15.296 9.992C15.512 9.992 15.68 9.92 15.8 9.8C15.896 9.704 15.992 9.488 15.992 9.296V6.8C15.992 6.608 15.896 6.392 15.8 6.296C15.68 6.176 15.512 6.104 15.296 6.104H12.104C11.696 6.104 11.408 6.392 11.408 6.8V9.296C11.408 9.704 11.696 9.992 12.104 9.992H15.296ZM0.00800025 14.192C0.00800025 14.48 0.08 14.576 0.296 14.792C0.392 14.912 0.608 15.008 0.8 15.008H3.896C4.112 15.008 4.304 14.912 4.496 14.696C4.64 14.552 4.712 14.384 4.712 14.192V11.696C4.712 11.504 4.592 11.288 4.496 11.192C4.376 11.072 4.208 11 3.992 11H0.8C0.536 11 0.416 11.072 0.2 11.288C0.08 11.456 0.00800025 11.624 0.00800025 11.792V14.192ZM15.296 15.008C15.752 15.008 15.992 14.696 15.992 14.312V11.792C15.992 11.432 15.704 11.096 15.296 11.096H12.104C11.912 11.096 11.696 11.192 11.6 11.288C11.48 11.456 11.408 11.624 11.408 11.792V14.312C11.408 14.504 11.48 14.672 11.6 14.792C11.696 14.912 11.912 15.008 12.104 15.008H15.296ZM5.696 14.312C5.696 14.528 5.768 14.672 5.912 14.792C6.032 14.936 6.176 15.008 6.392 15.008H9.608C9.992 15.008 10.304 14.696 10.304 14.312V11.792C10.304 11.624 10.232 11.456 10.112 11.288C9.944 11.168 9.776 11.096 9.608 11.096H6.392C6.008 11.096 5.696 11.408 5.696 11.792V14.312Z" fill="#23232F" fill-opacity="0.64"/>
</svg>
