<svg width="16" height="16" viewBox="0 0 16 16" fill="none" xmlns="http://www.w3.org/2000/svg">
  <path d="M3.896 0.991999C4.12 0.991999 4.288 1.072 4.4 1.232C4.528 1.376 4.592 1.528 4.592 1.688V4.208C4.592 4.4 4.528 4.56 4.4 4.688L4.376 4.712C4.184 4.904 4.024 5 3.896 5H0.8C0.64 5 0.472 4.952 0.296 4.856L0.2 4.808C0.104 4.744 0.0480003 4.664 0.0320003 4.568C0.0160003 4.52 0.00800025 4.4 0.00800025 4.208V1.808C0.00800025 1.6 0.0880002 1.416 0.248 1.256C0.408 1.08 0.592 0.991999 0.8 0.991999H3.896ZM5.696 1.808C5.696 1.584 5.768 1.416 5.912 1.304C6.008 1.096 6.168 0.991999 6.392 0.991999H15.2C15.424 0.991999 15.592 1.064 15.704 1.208C15.816 1.32 15.888 1.416 15.92 1.496C15.968 1.56 15.992 1.664 15.992 1.808V4.304C15.992 4.464 15.928 4.632 15.8 4.808L15.704 4.856C15.544 4.952 15.376 5 15.2 5H6.392C6.152 5 5.976 4.928 5.864 4.784C5.752 4.624 5.696 4.432 5.696 4.208V1.808ZM4.712 9.296C4.712 9.392 4.688 9.488 4.64 9.584C4.592 9.68 4.544 9.752 4.496 9.8C4.208 9.928 4.008 9.992 3.896 9.992H0.8C0.576 9.992 0.384 9.92 0.224 9.776C0.0800003 9.616 0.00800025 9.424 0.00800025 9.2V6.704C0.00800025 6.496 0.0720003 6.328 0.2 6.2L0.296 6.152C0.472 6.056 0.64 6.008 0.8 6.008H3.992C4.2 6.008 4.368 6.072 4.496 6.2L4.568 6.32C4.664 6.48 4.712 6.64 4.712 6.8V9.296ZM6.392 9.992C6.2 9.992 6.04 9.928 5.912 9.8C5.768 9.688 5.696 9.52 5.696 9.296V6.8C5.696 6.576 5.768 6.408 5.912 6.296C6.04 6.168 6.2 6.104 6.392 6.104H15.2C15.408 6.104 15.576 6.168 15.704 6.296C15.832 6.424 15.896 6.592 15.896 6.8V9.296C15.896 9.504 15.832 9.672 15.704 9.8C15.576 9.928 15.408 9.992 15.2 9.992H6.392ZM0.00800025 11.792C0.00800025 11.632 0.0720003 11.464 0.2 11.288C0.312 11.176 0.408 11.104 0.488 11.072C0.568 11.024 0.672 11 0.8 11H3.992C4.184 11 4.352 11.064 4.496 11.192C4.64 11.32 4.712 11.488 4.712 11.696V14.192C4.712 14.384 4.64 14.552 4.496 14.696C4.304 14.904 4.104 15.008 3.896 15.008H0.8C0.576 15.008 0.408 14.936 0.296 14.792C0.184 14.68 0.104 14.584 0.0560004 14.504C0.0240003 14.44 0.00800025 14.336 0.00800025 14.192V11.792ZM6.392 15.008C6.2 15.008 6.04 14.936 5.912 14.792C5.768 14.68 5.696 14.52 5.696 14.312V11.792C5.696 11.6 5.76 11.44 5.888 11.312C6.032 11.168 6.2 11.096 6.392 11.096H15.2C15.296 11.096 15.392 11.12 15.488 11.168C15.584 11.2 15.656 11.24 15.704 11.288C15.832 11.464 15.896 11.632 15.896 11.792V14.312C15.896 14.504 15.832 14.664 15.704 14.792C15.592 14.936 15.424 15.008 15.2 15.008H6.392Z" fill="#23232F" fill-opacity="0.64"/>
</svg>
