<svg xmlns="http://www.w3.org/2000/svg" width="25" height="24" viewBox="0 0 25 24">
    <path fill="#23232F" d="M20.112 12.224l-.02.088-1 2.938h2.875c.53 0 .782.609.497.993l-.06.07-3.75 5c-.476.476-1.179.045-1.083-.537l.02-.088 1-2.938h-2.874c-.53 0-.782-.609-.497-.993l.06-.07 3.75-5c.476-.476 1.179-.045 1.082.537zM12.6 4.058l.143.042 7 3c.36.09.558.423.594.78l.006.12.001 2.732c-.582-.365-1.382-.373-2 .229L18.341 9.6l-5 2.1v5.8l.758-.32c.03.736.554 1.433 1.369 1.552L12.742 19.9c-.08.08-.224.096-.33.1h-.07c-.08 0-.224 0-.33-.051l-.07-.049-7-3c-.36-.09-.558-.423-.594-.78L4.342 16V8c0-.36.162-.72.486-.861l.114-.039 7-3c.25-.083.43-.097.657-.042zM6.342 9.5v5.8l5 2.1v-5.8l-5-2.1zm6-3.4L7.842 8l4.5 1.9 4.5-1.9-4.5-1.9z" opacity=".5"/>
</svg>
