<svg xmlns="http://www.w3.org/2000/svg" width="24" height="24" viewBox="0 0 24 24">
    <defs>
        <filter id="prefix__a" width="107.3%" height="109.4%" x="-3.6%" y="-4.7%" filterUnits="objectBoundingBox">
            <feOffset dy="1" in="SourceAlpha" result="shadowOffsetOuter1"/>
            <feGaussianBlur in="shadowOffsetOuter1" result="shadowBlurOuter1" stdDeviation=".5"/>
            <feColorMatrix in="shadowBlurOuter1" result="shadowMatrixOuter1" values="0 0 0 0 0 0 0 0 0 0 0 0 0 0 0 0 0 0 0.05 0"/>
            <feOffset in="SourceAlpha" result="shadowOffsetOuter2"/>
            <feGaussianBlur in="shadowOffsetOuter2" result="shadowBlurOuter2" stdDeviation="1.5"/>
            <feColorMatrix in="shadowBlurOuter2" result="shadowMatrixOuter2" values="0 0 0 0 0 0 0 0 0 0 0 0 0 0 0 0 0 0 0.05 0"/>
            <feMerge>
                <feMergeNode in="shadowMatrixOuter1"/>
                <feMergeNode in="shadowMatrixOuter2"/>
                <feMergeNode in="SourceGraphic"/>
            </feMerge>
        </filter>
    </defs>
    <g fill="#23232F" filter="url(#prefix__a)" opacity=".5" transform="translate(-20 -20)">
        <path d="M39.4 27.1l-7-3c-.3-.1-.5-.1-.8 0l-7 3c-.4.1-.6.5-.6.9v8c0 .4.2.8.6.9l7 3c.1.1.3.1.4.1.1 0 .3 0 .4-.1l7-3c.4-.2.6-.5.6-.9v-8c0-.4-.2-.8-.6-.9zm-7.4-1l4.5 1.9-4.5 1.9-4.5-1.9 4.5-1.9zm-6 3.4l5 2.1v5.8l-5-2.1v-5.8zm7 8v-5.8l5-2.1v5.8l-5 2.1z"/>
    </g>
</svg>
