<svg width="25" height="24" viewBox="0 0 25 24" fill="none" xmlns="http://www.w3.org/2000/svg">
<path d="M18.302 5H11.302C8.52075 5 6.302 7.25 6.302 10C6.302 12.7812 8.52075 15 11.302 15H12.802V18.5C12.802 18.7812 13.0208 19 13.302 19H13.802C14.052 19 14.302 18.7812 14.302 18.5V6.5H15.802V18.5C15.802 18.7812 16.0208 19 16.302 19H16.802C17.052 19 17.302 18.7812 17.302 18.5V6.5H18.302C18.552 6.5 18.802 6.28125 18.802 6V5.5C18.802 5.25 18.552 5 18.302 5ZM12.802 13.5H11.302C9.3645 13.5 7.802 11.9375 7.802 10C7.802 8.09375 9.3645 6.5 11.302 6.5H12.802V13.5Z" fill="#94928F"/>
</svg>
