<svg xmlns="http://www.w3.org/2000/svg" width="17" height="16" viewBox="0 0 17 16">
    <path fill="#23232F" d="M6.015 3c.616 0 .953.719.559 1.193l-.743.889L7.2 6.312c.936.844 1.49 2.027 1.54 3.28l.005.19v2.885c0 .368-.299.666-.667.666-.342 0-.624-.257-.662-.589l-.005-.077V9.78c0-.885-.352-1.732-.975-2.356l-.128-.121-1.33-1.197-.524.63c-.375.45-1.083.29-1.25-.241l-.025-.104-.425-2.545C2.68 3.403 3.021 3 3.471 3zm7.333 0c.45 0 .791.403.718.847l-.424 2.545c-.103.613-.878.824-1.276.346l-.625-.75-1.914 1.533c-.288.23-.707.183-.937-.105-.213-.265-.19-.643.042-.88l.062-.057 1.893-1.516-.641-.77c-.372-.446-.095-1.11.452-1.186L10.804 3z" opacity=".8"/>
</svg>
