<svg xmlns="http://www.w3.org/2000/svg" width="16" height="16" viewBox="0 0 16 16">
    <path fill="#23232F" d="M8 4.333c.368 0 .666.299.666.667v2.667h1.667a.667.667 0 110 1.333h-2a1 1 0 01-1-1V5c0-.368.299-.667.667-.667zm.134-3.332h.009l.014.001h.01l.118.004.074.004c.06.003.12.008.18.013l.037.003c.063.005.124.012.186.02l.04.005c.142.017.283.04.422.067l.033.008c.068.012.135.027.201.043l.014.004c.147.034.291.074.433.119l.019.006.17.056.064.024c.134.048.265.1.394.157l.023.01c.05.022.099.045.147.068l.08.039.047.024c.488.245.95.557 1.37.934l.046.041.12.111.048.048c.04.038.078.078.117.118l.154.164.148.17a6.44 6.44 0 01.266.34l.092.13a4.299 4.299 0 01.118.177 6.265 6.265 0 01.453.834l.092.216.003.006c.024.06.049.125.073.191l.042.118a6.137 6.137 0 01.06.184l.042.142.03.11.028.107.016.069.016.069a6.32 6.32 0 01.15 1.363v.015c0 .714-.118 1.4-.336 2.04l-.022.064-.025.07a6.29 6.29 0 01-.405.89l-.06.104a6.283 6.283 0 01-1.154 1.454l-.028.025a5.688 5.688 0 01-.096.087l-.136.118a6.305 6.305 0 01-3.738 1.473v1.092c0 .178-.158.296-.303.233l-.053-.033L5.75 13.2c-.095-.086-.109-.245-.04-.352l.04-.048 2.227-1.75c.139-.111.312-.025.35.136l.006.064v1.072a4.976 4.976 0 002.749-1.051l.132-.107.164-.144a5.03 5.03 0 00.171-.165l.07-.07.019-.023.048-.05.034-.038.025-.029.02-.021.066-.077-.05.058a5.01 5.01 0 00.712-1.075v-.003l.01-.02v-.001l.033-.067v-.001l.015-.033.029-.063.033-.077-.034.077.052-.121.026-.065.035-.09.037-.104.025-.079.022-.069.002-.007.02-.063.032-.114-.017.061a5.026 5.026 0 00.166-1.82l.002.032-.006-.066v-.002l-.02-.178a4.994 4.994 0 00-.077-.425l-.003-.012v-.003l-.008-.034-.011-.045-.003-.011-.015-.059-.017-.065-.014-.049-.01-.031-.014-.051-.017-.055v-.002l-.018-.052-.018-.053-.003-.01-.022-.063-.01-.027-.004-.01-.025-.067.013.036-.08-.2a4.965 4.965 0 00-.465-.85l-.018-.026-.016-.022-.075-.104a5.077 5.077 0 00-.195-.248l-.155-.175a5.03 5.03 0 00-.313-.312l-.015-.014-.02-.017-.004-.004-.045-.04-.034-.029.027.024-.07-.06a5.025 5.025 0 00-.694-.486l-.217-.118-.092-.047-.058-.028.043.02-.051-.024-.028-.013-.053-.024.032.014-.034-.015-.04-.017-.002-.001L10 2.749l-.055-.023-.032-.014-.096-.038-.03-.011-.032-.013-.016-.006-.003-.001L9.7 2.63l.02.008-.16-.055.107.035-.033-.011a4.96 4.96 0 00-.106-.035l.032.01-.103-.032.05.015-.09-.028-.053-.015-.267-.067a5.029 5.029 0 00-1.326-.117l-.28.02-.274.036-.058.01-.018.002-.031.005-.065.013-.042.009-.025.005-.08.017-.1.023.099-.023-.097.023-.105.027.083-.022-.099.026-.034.01-.053.015-.019.006-.024.006-.062.02a4.96 4.96 0 00-.093.03l.043-.014-.062.021-.01.003-.009.004-.025.008-.005.002h-.001l-.028.01-.023.009-.032.011-.063.025-.007.002-.064.026-.01.004-.046.02-.045.019.079-.034-.136.06-.034.014.032-.014-.09.041-.041.02.04-.02-.06.03-.018.008.019-.009-.052.026-.037.019-.014.007.074-.037a4.987 4.987 0 00-.246.131l-.031.018.016-.009-.108.064-.05.031-.018.011-.05.032.028-.018-.028.018-.044.029.045-.029-.074.049-.07.047-.041.03-.033.023-.023.017-.066.049.036-.026a5.079 5.079 0 00-.95.927l-.018.022-.012.014.012-.014-.04.051.018-.024-.061.083-.044.06.023-.03c-.13.18-.248.37-.354.567l-.093.183-.085.186-.038.091-.004.011-.001.001-.002.006-.001.001-.017.043-.011.029-.001.002-.022.058-.003.008V5.6l-.063.183a5.007 5.007 0 00-.065.216l-.055.218a4.992 4.992 0 00.942 4.205l.102.125-1.022.857A6.307 6.307 0 011.667 7.4l.002-.21-.001.048v-.047l.002-.058v-.006l.003-.078.006-.113c.037-.606.16-1.189.356-1.737l.01-.023a6.279 6.279 0 011.084-1.89l.063-.075c.026-.032.053-.063.08-.093l.065-.07c.03-.034.06-.067.092-.1l.053-.053a6.464 6.464 0 01.456-.421l.024-.02.03-.025.033-.026.01-.009.005-.003.03-.024.018-.015.002-.002.016-.012.107-.082.068-.05a8.85 8.85 0 01.283-.194 5.85 5.85 0 01.164-.102l.075-.045c.025-.015.05-.03.075-.043l.1-.056.069-.037.123-.063.11-.054.097-.045.104-.046c.14-.061.284-.117.428-.168l.044-.015.072-.024a6.292 6.292 0 01.563-.156l.066-.015a6.51 6.51 0 01.606-.1l.078-.009a5.633 5.633 0 01.393-.029h.03L7.88 1 8 1l.155.002h-.021z" opacity=".8"/>
</svg>
