<svg width="10" height="12" viewBox="0 0 10 12" fill="none" xmlns="http://www.w3.org/2000/svg">
<path d="M7.464 3.328C6.74933 2.89067 6.04 2.672 5.336 2.672C4.696 2.672 4.104 2.82133 3.56 3.12C3.016 3.41867 2.57333 3.824 2.232 4.336C1.90133 4.848 1.71467 5.424 1.672 6.064L0.328 5.936C0.392 5.08267 0.664 4.29867 1.144 3.584C1.60267 2.89067 2.2 2.34133 2.936 1.936C3.68267 1.53067 4.48267 1.328 5.336 1.328C6.46667 1.328 7.464 1.664 8.328 2.336V0.672H9.672V4.672H5.672V3.328H7.464ZM2.536 8.672C2.89867 8.88533 3.24 9.04533 3.56 9.152C3.912 9.26933 4.28 9.328 4.664 9.328C5.304 9.328 5.896 9.17867 6.44 8.88C6.984 8.58133 7.42133 8.176 7.752 7.664C8.09333 7.152 8.28533 6.576 8.328 5.936L9.672 6.064C9.608 6.91733 9.336 7.70133 8.856 8.416C8.39733 9.10933 7.79467 9.65867 7.048 10.064C6.312 10.4693 5.51733 10.672 4.664 10.672C3.53333 10.672 2.536 10.336 1.672 9.664V11.328H0.328V7.328H4.328V8.672H2.536Z" fill="#9B9BA1"/>
</svg>
