<svg xmlns="http://www.w3.org/2000/svg" width="28" height="28" fill="none" viewBox="0 0 28 28">
    <path fill="#23232F" fill-opacity=".48" fill-rule="evenodd" d="M17.5 10.5h4.667c.7 0 1.166.467 1.166 1.167v10.5c0 .7-.466 1.166-1.166 1.166H5.833c-.7 0-1.166-.466-1.166-1.166v-10.5c0-.7.466-1.167 1.166-1.167H10.5V8.167c0-1.984 1.517-3.5 3.5-3.5s3.5 1.516 3.5 3.5V10.5zM14 7c-.7 0-1.167.467-1.167 1.167V10.5h2.334V8.167C15.167 7.467 14.7 7 14 7zM7 21v-8.167h14V21H7zm5.833-5.833h-3.5v3.5h3.5v-3.5zm1.167 0h4.667v1.166H14v-1.166zm4.667 2.333H14v1.167h4.667V17.5z" clip-rule="evenodd"/>
</svg>
