<svg xmlns="http://www.w3.org/2000/svg" width="33" height="32" viewBox="0 0 33 32">
    <defs>
        <filter id="a" width="119.2%" height="205.9%" x="-9.6%" y="-55.9%" filterUnits="objectBoundingBox">
            <feMorphology in="SourceAlpha" operator="dilate" radius="1" result="shadowSpreadOuter1"/>
            <feOffset dy="4" in="shadowSpreadOuter1" result="shadowOffsetOuter1"/>
            <feGaussianBlur in="shadowOffsetOuter1" result="shadowBlurOuter1" stdDeviation="5"/>
            <feColorMatrix in="shadowBlurOuter1" result="shadowMatrixOuter1" values="0 0 0 0 0.328549592 0 0 0 0 0.328549592 0 0 0 0 0.328549592 0 0 0 0.08 0"/>
            <feMorphology in="SourceAlpha" operator="dilate" radius=".5" result="shadowSpreadOuter2"/>
            <feOffset in="shadowSpreadOuter2" result="shadowOffsetOuter2"/>
            <feGaussianBlur in="shadowOffsetOuter2" result="shadowBlurOuter2" stdDeviation="1"/>
            <feColorMatrix in="shadowBlurOuter2" result="shadowMatrixOuter2" values="0 0 0 0 0 0 0 0 0 0 0 0 0 0 0 0 0 0 0.03 0"/>
            <feMerge>
                <feMergeNode in="shadowMatrixOuter1"/>
                <feMergeNode in="shadowMatrixOuter2"/>
                <feMergeNode in="SourceGraphic"/>
            </feMerge>
        </filter>
    </defs>
    <path fill="#23232F" fill-rule="nonzero" d="M6.33 17.36c.465-.122.961.017 1.296.364l1.724 1.724 1.724-1.724a1.333 1.333 0 0 1 1.885 1.885l-1.724 1.724 1.724 1.724a1.333 1.333 0 1 1-1.885 1.886L9.35 23.219l-1.724 1.724a1.333 1.333 0 1 1-1.886-1.886l1.724-1.724L5.74 19.61a1.333 1.333 0 0 1 .59-2.249zM25.682 20a1 1 0 0 1 1 1v.667a1 1 0 0 1-1 1h-8.667a1 1 0 0 1-1-1V21a1 1 0 0 1 1-1h8.667zM14.744 5.335l.141.014a1.334 1.334 0 0 1 .84 2.151l-5.333 6.667c-.237.296-.589.477-.968.497h-.073c-.354 0-.693-.14-.943-.39l-2.666-2.667a1.335 1.335 0 0 1 1.885-1.89l1.613 1.614 4.403-5.5c.298-.37.771-.554 1.242-.482zm10.94 3.998a1 1 0 0 1 1 1V11a1 1 0 0 1-1 1h-8.668a1 1 0 0 1-1-1v-.667a1 1 0 0 1 1-1h8.667z" filter="url(#a)" opacity=".6" transform="translate(.5)"/>
</svg>
