<svg width="16" height="16" viewBox="0 0 16 16" fill="none" xmlns="http://www.w3.org/2000/svg">
<path d="M0.00800025 8C0.00800025 6.56 0.376 5.216 1.112 3.968C1.816 2.768 2.768 1.816 3.968 1.112C5.216 0.376 6.56 0.0079999 8 0.0079999C9.44 0.0079999 10.784 0.376 12.032 1.112C13.232 1.816 14.184 2.768 14.888 3.968C15.624 5.216 15.992 6.56 15.992 8C15.992 9.44 15.624 10.784 14.888 12.032C14.184 13.232 13.232 14.184 12.032 14.888C10.784 15.624 9.44 15.992 8 15.992C6.56 15.992 5.216 15.624 3.968 14.888C2.768 14.184 1.816 13.232 1.112 12.032C0.376 10.784 0.00800025 9.44 0.00800025 8ZM10.496 8L6.512 5V11L10.496 8Z" fill="#03A9F4"/>
</svg>
