<svg width="24" height="24" viewBox="0 0 24 24" fill="none" xmlns="http://www.w3.org/2000/svg">
<path d="M21.4608 11.7978L21.4617 11.8C21.4893 11.8631 21.5035 11.9312 21.5035 12C21.5035 12.0688 21.4893 12.1369 21.4617 12.2L21.4608 12.2022C19.496 16.7641 15.8463 19.5 12 19.5C8.1537 19.5 4.50406 16.7641 2.53923 12.2022L2.53826 12.2C2.51073 12.1369 2.49652 12.0688 2.49652 12C2.49652 11.9312 2.51073 11.8631 2.53826 11.8L2.53827 11.8L2.53922 11.7978C4.50406 7.23587 8.1537 4.5 12 4.5C15.8463 4.5 19.496 7.23587 21.4608 11.7978ZM3.64685 11.7887L3.54832 12L3.64685 12.2113C5.42948 16.0342 8.57444 18.5 12 18.5C15.4256 18.5 18.5705 16.0342 20.3532 12.2113L20.4517 12L20.3532 11.7887C18.5705 7.96583 15.4256 5.5 12 5.5C8.57444 5.5 5.42948 7.96583 3.64685 11.7887ZM10.0555 9.08986C10.6311 8.70527 11.3078 8.5 12 8.5C12.9283 8.5 13.8185 8.86875 14.4749 9.52513C15.1313 10.1815 15.5 11.0717 15.5 12C15.5 12.6922 15.2947 13.3689 14.9101 13.9445C14.5256 14.5201 13.9789 14.9687 13.3394 15.2336C12.6999 15.4985 11.9961 15.5678 11.3172 15.4327C10.6383 15.2977 10.0146 14.9644 9.52513 14.4749C9.03565 13.9854 8.7023 13.3617 8.56726 12.6828C8.43221 12.0039 8.50152 11.3001 8.76643 10.6606C9.03133 10.0211 9.47994 9.47444 10.0555 9.08986ZM10.6111 14.0787C11.0222 14.3534 11.5056 14.5 12 14.5C12.663 14.5 13.2989 14.2366 13.7678 13.7678C14.2366 13.2989 14.5 12.663 14.5 12C14.5 11.5055 14.3534 11.0222 14.0787 10.6111C13.804 10.2 13.4135 9.87952 12.9567 9.6903C12.4999 9.50108 11.9972 9.45157 11.5123 9.54804C11.0273 9.6445 10.5819 9.8826 10.2322 10.2322C9.88261 10.5819 9.64451 11.0273 9.54804 11.5123C9.45158 11.9972 9.50109 12.4999 9.69031 12.9567C9.87953 13.4135 10.2 13.804 10.6111 14.0787Z" fill="#5D4037" stroke="#5D4037"/>
</svg>
