<svg xmlns="http://www.w3.org/2000/svg" width="33" height="33" viewBox="0 0 33 33">
    <g fill="none" fill-rule="nonzero">
        <path d="M4.346.5h24.308c1.337 0 1.822.14 2.311.4.49.262.873.646 1.134 1.135.262.489.401.974.401 2.31v24.31c0 1.336-.14 1.821-.4 2.31a2.726 2.726 0 0 1-1.135 1.134c-.489.262-.974.401-2.31.401H4.344c-1.336 0-1.821-.14-2.31-.4A2.726 2.726 0 0 1 .9 30.964C.639 30.476.5 29.991.5 28.655V4.344c0-1.336.14-1.821.4-2.31A2.726 2.726 0 0 1 2.036.9C2.524.639 3.009.5 4.345.5z" opacity=".05"/>
        <path d="M5.628.5h21.744c1.783 0 2.43.186 3.082.534.652.349 1.163.86 1.512 1.512.348.652.534 1.299.534 3.082v21.744c0 1.783-.186 2.43-.534 3.082a3.635 3.635 0 0 1-1.512 1.512c-.652.348-1.299.534-3.082.534H5.628c-1.783 0-2.43-.186-3.082-.534a3.635 3.635 0 0 1-1.512-1.512C.686 29.802.5 29.155.5 27.372V5.628c0-1.783.186-2.43.534-3.082a3.635 3.635 0 0 1 1.512-1.512C3.198.686 3.845.5 5.628.5z"/>
        <g fill="#23232F" opacity=".6">
            <path d="M18.167 16.5a1.667 1.667 0 1 1-3.334 0 1.667 1.667 0 0 1 3.334 0zm0 5a1.667 1.667 0 1 1-3.334 0 1.667 1.667 0 0 1 3.334 0zm0-10a1.667 1.667 0 1 1-3.334 0 1.667 1.667 0 0 1 3.334 0z"/>
        </g>
    </g>
</svg>
