<svg xmlns="http://www.w3.org/2000/svg" width="38" height="25" viewBox="0 0 38 25">
    <g fill="none" fill-rule="evenodd">
        <g fill-rule="nonzero">
            <path fill="#23232F" d="M4.346.5h29.308c1.337 0 1.822.14 2.311.4.49.262.873.646 1.134 1.135.262.489.401.974.401 2.31v16.31c0 1.336-.14 1.821-.4 2.31a2.726 2.726 0 0 1-1.135 1.134c-.489.262-.974.401-2.31.401H4.344c-1.336 0-1.821-.14-2.31-.4A2.726 2.726 0 0 1 .9 22.964C.639 22.476.5 21.991.5 20.655V4.344c0-1.336.14-1.821.4-2.31A2.726 2.726 0 0 1 2.036.9C2.524.639 3.009.5 4.345.5z" opacity=".05"/>
            <path d="M5.628.5h26.744c1.783 0 2.43.186 3.082.534.652.349 1.163.86 1.512 1.512.348.652.534 1.299.534 3.082v13.744c0 1.783-.186 2.43-.534 3.082a3.635 3.635 0 0 1-1.512 1.512c-.652.348-1.299.534-3.082.534H5.628c-1.783 0-2.43-.186-3.082-.534a3.635 3.635 0 0 1-1.512-1.512C.686 21.802.5 21.155.5 19.372V5.628c0-1.783.186-2.43.534-3.082a3.635 3.635 0 0 1 1.512-1.512C3.198.686 3.845.5 5.628.5z"/>
        </g>
        <text fill="#23232F" font-family="Lato-Bold, Lato" font-size="12" font-weight="bold" opacity=".8" style="mix-blend-mode:multiply" transform="translate(.5 .5)">
            <tspan x="22.02" y="16">2</tspan>
        </text>
        <path fill="#23232F" fill-rule="nonzero" d="M10.438 7.5c.616 0 .953.719.559 1.193l-.742.889 1.367 1.23a4.667 4.667 0 0 1 1.54 3.28l.005.19v2.885a.667.667 0 0 1-1.33.077l-.004-.077V14.28c0-.885-.352-1.732-.975-2.356l-.128-.121-1.33-1.197-.524.63a.727.727 0 0 1-1.25-.241l-.025-.104-.424-2.545a.727.727 0 0 1 .717-.847zm7.334 0c.449 0 .79.403.717.847l-.424 2.545a.727.727 0 0 1-1.276.346l-.624-.75-1.915 1.533a.667.667 0 0 1-.895-.985l.062-.057 1.894-1.516-.642-.77a.728.728 0 0 1 .452-1.186l.106-.007z" opacity=".8"/>
    </g>
</svg>
