<svg xmlns="http://www.w3.org/2000/svg" width="38" height="25" viewBox="0 0 38 25">
    <g fill="none" fill-rule="evenodd">
        <g fill-rule="nonzero">
            <path fill="#23232F" d="M4.346.5h29.308c1.337 0 1.822.14 2.311.4.49.262.873.646 1.134 1.135.262.489.401.974.401 2.31v16.31c0 1.336-.14 1.821-.4 2.31a2.726 2.726 0 0 1-1.135 1.134c-.489.262-.974.401-2.31.401H4.344c-1.336 0-1.821-.14-2.31-.4A2.726 2.726 0 0 1 .9 22.964C.639 22.476.5 21.991.5 20.655V4.344c0-1.336.14-1.821.4-2.31A2.726 2.726 0 0 1 2.036.9C2.524.639 3.009.5 4.345.5z" opacity=".05"/>
            <path d="M5.628.5h26.744c1.783 0 2.43.186 3.082.534.652.349 1.163.86 1.512 1.512.348.652.534 1.299.534 3.082v13.744c0 1.783-.186 2.43-.534 3.082a3.635 3.635 0 0 1-1.512 1.512c-.652.348-1.299.534-3.082.534H5.628c-1.783 0-2.43-.186-3.082-.534a3.635 3.635 0 0 1-1.512-1.512C.686 21.802.5 21.155.5 19.372V5.628c0-1.783.186-2.43.534-3.082a3.635 3.635 0 0 1 1.512-1.512C3.198.686 3.845.5 5.628.5z"/>
        </g>
        <text fill="#23232F" font-family="Lato-Bold, Lato" font-size="12" font-weight="bold" opacity=".25" transform="translate(.5 .5)">
            <tspan x="22" y="16">0</tspan>
        </text>
        <path fill="#23232F" fill-rule="nonzero" d="M15.833 11.167h-3.066l1.066-3.134c.2-.666-.6-1.2-1.133-.666l-4 5.333c-.4.4-.133 1.133.467 1.133h3.066l-1.066 3.134c-.2.666.6 1.2 1.133.666l4-5.333c.4-.4.133-1.133-.467-1.133z" opacity=".25"/>
    </g>
</svg>
