<svg width="16" height="16" viewBox="0 0 16 16" fill="none" xmlns="http://www.w3.org/2000/svg">
<path d="M0.00800025 8C0.00800025 6.56 0.376 5.216 1.112 3.968C1.816 2.768 2.768 1.816 3.968 1.112C5.216 0.376 6.56 0.0079999 8 0.0079999C9.44 0.0079999 10.784 0.376 12.032 1.112C13.232 1.816 14.184 2.768 14.888 3.968C15.624 5.216 15.992 6.56 15.992 8C15.992 9.44 15.624 10.784 14.888 12.032C14.184 13.232 13.232 14.184 12.032 14.888C10.784 15.624 9.44 15.992 8 15.992C6.56 15.992 5.216 15.624 3.968 14.888C2.768 14.184 1.816 13.232 1.112 12.032C0.376 10.784 0.00800025 9.44 0.00800025 8ZM9.992 11C10.536 11.176 10.952 11.344 11.24 11.504C11.624 11.712 11.912 11.976 12.104 12.296C12.712 11.736 13.176 11.096 13.496 10.376C13.832 9.64 14 8.848 14 8C14 6.912 13.728 5.912 13.184 5C12.656 4.072 11.928 3.344 11 2.816C10.088 2.272 9.088 2 8 2C6.928 2 5.928 2.272 5 2.816C4.088 3.344 3.36 4.072 2.816 5C2.272 5.912 2 6.912 2 8C2 8.848 2.16 9.64 2.48 10.376C2.816 11.096 3.288 11.736 3.896 12.296C4.088 11.976 4.376 11.712 4.76 11.504C5.048 11.344 5.464 11.176 6.008 11C6.328 10.904 6.568 10.752 6.728 10.544C6.856 10.384 6.944 10.136 6.992 9.8C6.384 9.592 5.896 9.232 5.528 8.72C5.176 8.208 5 7.632 5 6.992C5 6.432 5.128 5.928 5.384 5.48C5.656 5.016 6.016 4.656 6.464 4.4C6.928 4.128 7.44 3.992 8 3.992C8.56 3.992 9.064 4.128 9.512 4.4C9.976 4.656 10.336 5.016 10.592 5.48C10.864 5.928 11 6.432 11 6.992C11 7.616 10.808 8.192 10.424 8.72C10.056 9.232 9.584 9.592 9.008 9.8C9.056 10.136 9.144 10.384 9.272 10.544C9.432 10.752 9.672 10.904 9.992 11Z" fill="#949499"/>
</svg>
