<svg width="16" height="8" viewBox="0 0 16 8" fill="none" xmlns="http://www.w3.org/2000/svg">
<path d="M8.7 1C8.7 1.55228 9.14772 2 9.7 2H12.3L8.7 5.6L5.40711 2.30711C5.01658 1.91658 4.38342 1.91658 3.99289 2.30711L0.7 5.6C0.3134 5.9866 0.313401 6.6134 0.7 7C1.0866 7.3866 1.7134 7.3866 2.1 7L4.7 4.4L7.99289 7.69289C8.38342 8.08342 9.01658 8.08342 9.40711 7.69289L13.7 3.4V6C13.7 6.55228 14.1477 7 14.7 7C15.2523 7 15.7 6.55228 15.7 6V1C15.7 0.447715 15.2523 0 14.7 0H9.7C9.14771 0 8.7 0.447715 8.7 1Z" fill="#9B9BA1"/>
</svg>
