<svg width="20" height="20" viewBox="0 0 20 20" fill="none" xmlns="http://www.w3.org/2000/svg">
  <path d="M9.16668 1.66675C7.5185 1.66675 5.90734 2.15549 4.53693 3.07117C3.16652 3.98685 2.09841 5.28834 1.46768 6.81105C0.836954 8.33377 0.671926 10.0093 0.99347 11.6258C1.31501 13.2423 2.10869 14.7272 3.27412 15.8926C4.43956 17.0581 5.92442 17.8517 7.54093 18.1733C9.15744 18.4948 10.833 18.3298 12.3557 17.6991C13.8784 17.0683 15.1799 16.0002 16.0956 14.6298C17.0113 13.2594 17.5 11.6483 17.5 10.0001C17.5 8.90573 17.2845 7.8221 16.8657 6.81105C16.4469 5.80001 15.8331 4.88135 15.0592 4.10752C14.2854 3.3337 13.3668 2.71987 12.3557 2.30109C11.3447 1.8823 10.261 1.66675 9.16668 1.66675ZM9.16668 16.6667C7.84814 16.6667 6.55921 16.2758 5.46288 15.5432C4.36655 14.8107 3.51207 13.7695 3.00748 12.5513C2.5029 11.3331 2.37088 9.99269 2.62811 8.69948C2.88535 7.40627 3.52029 6.21839 4.45264 5.28604C5.38499 4.35369 6.57287 3.71875 7.86608 3.46151C9.15929 3.20428 10.4997 3.3363 11.7179 3.84088C12.9361 4.34547 13.9773 5.19995 14.7098 6.29628C15.4424 7.39261 15.8333 8.68154 15.8333 10.0001C15.8333 11.7682 15.131 13.4639 13.8807 14.7141C12.6305 15.9644 10.9348 16.6667 9.16668 16.6667ZM9.16668 5.00008C8.94567 5.00008 8.73371 5.08788 8.57743 5.24416C8.42114 5.40044 8.33335 5.6124 8.33335 5.83342V9.16675H6.66668C6.44567 9.16675 6.23371 9.25455 6.07743 9.41083C5.92114 9.56711 5.83335 9.77907 5.83335 10.0001C5.83335 10.2211 5.92114 10.4331 6.07743 10.5893C6.23371 10.7456 6.44567 10.8334 6.66668 10.8334H9.16668C9.38769 10.8334 9.59966 10.7456 9.75594 10.5893C9.91222 10.4331 10 10.2211 10 10.0001V5.83342C10 5.6124 9.91222 5.40044 9.75594 5.24416C9.59966 5.08788 9.38769 5.00008 9.16668 5.00008Z" fill="#23232F" fill-opacity="0.64"/>
</svg>
