<svg width="21" height="20" viewBox="0 0 21 20" fill="none" xmlns="http://www.w3.org/2000/svg">
  <path d="M8.14645 5.64645C8.24022 5.55268 8.3674 5.5 8.5 5.5C8.63261 5.5 8.75979 5.55268 8.85356 5.64645C8.94733 5.74022 9 5.86739 9 6V14C9 14.1326 8.94733 14.2598 8.85356 14.3536C8.75979 14.4473 8.63261 14.5 8.5 14.5C8.3674 14.5 8.24022 14.4473 8.14645 14.3536C8.05268 14.2598 8 14.1326 8 14V6C8 5.86739 8.05268 5.74022 8.14645 5.64645ZM5.22209 2.10104C6.78435 1.05717 8.62108 0.5 10.5 0.5C11.7476 0.5 12.9829 0.745725 14.1355 1.22314C15.2881 1.70056 16.3354 2.40033 17.2175 3.28249C18.0997 4.16464 18.7994 5.21191 19.2769 6.36451C19.7543 7.5171 20 8.75244 20 10C20 11.8789 19.4428 13.7157 18.399 15.2779C17.3551 16.8402 15.8714 18.0578 14.1355 18.7769C12.3996 19.4959 10.4895 19.684 8.64665 19.3175C6.80383 18.9509 5.11109 18.0461 3.78249 16.7175C2.45389 15.3889 1.5491 13.6962 1.18254 11.8534C0.815985 10.0105 1.00412 8.1004 1.72315 6.36451C2.44218 4.62861 3.65982 3.14491 5.22209 2.10104ZM5.77766 17.0675C7.17548 18.0015 8.81886 18.5 10.5 18.5C12.7543 18.5 14.9164 17.6045 16.5104 16.0104C18.1045 14.4163 19 12.2543 19 10C19 8.31886 18.5015 6.67547 17.5675 5.27765C16.6335 3.87984 15.306 2.79037 13.7528 2.14702C12.1996 1.50368 10.4906 1.33535 8.84174 1.66333C7.1929 1.9913 5.67834 2.80085 4.4896 3.98959C3.30085 5.17834 2.4913 6.69289 2.16333 8.34173C1.83536 9.99057 2.00368 11.6996 2.64703 13.2528C3.29037 14.806 4.37984 16.1335 5.77766 17.0675ZM12.1465 5.64645C12.2402 5.55268 12.3674 5.5 12.5 5.5C12.6326 5.5 12.7598 5.55268 12.8536 5.64645C12.9473 5.74022 13 5.86739 13 6V14C13 14.1326 12.9473 14.2598 12.8536 14.3536C12.7598 14.4473 12.6326 14.5 12.5 14.5C12.3674 14.5 12.2402 14.4473 12.1465 14.3536C12.0527 14.2598 12 14.1326 12 14V6C12 5.86739 12.0527 5.74022 12.1465 5.64645Z" fill="black" stroke="#94928F"/>
</svg>
