<svg width="17" height="12" viewBox="0 0 17 12" fill="none" xmlns="http://www.w3.org/2000/svg">
  <path d="M14.312 0.287999L5 9.6L1.712 6.288C1.52 6.096 1.28 6 1.016 6C0.752 6 0.512 6.096 0.32 6.288C0.104 6.504 0.00800025 6.72 0.00800025 6.984C0.00800025 7.248 0.104 7.488 0.296 7.704L4.304 11.688C4.52 11.904 4.736 12 5 12C5.264 12 5.48 11.904 5.696 11.688L15.704 1.704C15.92 1.488 16.016 1.248 16.016 0.983999C16.016 0.719999 15.92 0.503999 15.704 0.287999C15.512 0.0959995 15.272 0 15.008 0C14.744 0 14.504 0.0959995 14.312 0.287999Z" fill="#039BE5"/>
</svg>
