<svg width="24" height="24" xmlns="http://www.w3.org/2000/svg" fill="#2F2723DD">
  <path d="m18.60943,5.40625c-0.9063,-0.875 -2.0626,-1.40625 -3.3126,-1.40625c-1.4687,0 -3.06245,0.6875 -4.5937,2.21875l-2.65625,2.6875c-2.34375,2.34375 -2.28125,6.12495 -1.78125,7.78125l-2.03125,2.0625c-0.3125,0.2812 -0.3125,0.75 0,1.0312c0.28125,0.3126 0.75,0.3126 1.03125,0l2.0625,-2.0312c0.5625,0.1562 1.34375,0.2812 2.21875,0.2812c1.78125,0 3.99995,-0.4687 5.56255,-2.0624l2.6874,-2.6563c2.8126,-2.84375 2.75,-5.9375 0.8126,-7.90625zm-10.00005,11.06255l1.4375,-1.4688l3.90625,0c-1.40625,1.3125 -3.34375,1.5312 -4.40625,1.5312c-0.34375,0 -0.65625,-0.0312 -0.9375,-0.0624zm6.34375,-2.4688l-3.90625,0l1.99995,-2l3.875,0c-0.0624,0.09375 -0.125,0.15625 -0.1874,0.25l-1.7813,1.75zm2.75,-3l-3.6563,0l0.7188,-0.6875c0.2812,-0.28125 0.2812,-0.78125 0,-1.0625c-0.2812,-0.28125 -0.7812,-0.28125 -1.0625,0l-6.15625,6.1562c-0.15625,-1.43745 0,-3.87495 1.5625,-5.43745c0,0 0.5625,-0.59375 2.65625,-2.6875c1.15625,-1.15625 2.375,-1.75 3.5312,-1.75c0.8438,0 1.5938,0.3125 2.25,0.9375c1.2188,1.25 1.25,2.90625 0.1563,4.53125z"/>
</svg>

