<svg width="24" height="24" viewBox="0 0 24 24" fill="none" xmlns="http://www.w3.org/2000/svg">
<path d="M17.9688 5H10.9688C8.1875 5 5.96875 7.25 5.96875 10C5.96875 12.7812 8.1875 15 10.9688 15H12.4688V18.5C12.4688 18.7812 12.6875 19 12.9688 19H13.4688C13.7188 19 13.9688 18.7812 13.9688 18.5V6.5H15.4688V18.5C15.4688 18.7812 15.6875 19 15.9688 19H16.4688C16.7188 19 16.9688 18.7812 16.9688 18.5V6.5H17.9688C18.2188 6.5 18.4688 6.28125 18.4688 6V5.5C18.4688 5.25 18.2188 5 17.9688 5ZM12.4688 13.5H10.9688C9.03125 13.5 7.46875 11.9375 7.46875 10C7.46875 8.09375 9.03125 6.5 10.9688 6.5H12.4688V13.5Z" fill="#94928F"/>
</svg>
