<svg xmlns="http://www.w3.org/2000/svg" width="24" height="24" viewBox="0 0 24 24">
    <path fill="#2F2723DD" d="M4.747 13.02a1 1 0 0 1 .972.273l1.293 1.293 1.293-1.293a1 1 0 0 1 1.414 1.414L8.426 16l1.293 1.293a1 1 0 1 1-1.414 1.414l-1.293-1.293-1.293 1.293a1 1 0 1 1-1.414-1.414L5.598 16l-1.293-1.293a1 1 0 0 1 .442-1.687zM19.012 15a1 1 0 0 1 0 2h-6a1 1 0 1 1 0-2h6zm-7.98-11l.132.011a1 1 0 0 1 .63 1.614l-4 5a1 1 0 0 1-.726.373h-.055a1 1 0 0 1-.707-.293l-2-2A1 1 0 1 1 5.72 7.288l1.21 1.21 3.302-4.125c.224-.277.579-.415.932-.362zm7.98 3a1 1 0 0 1 0 2h-6a1 1 0 1 1 0-2h6z"/>
</svg>
