<svg xmlns="http://www.w3.org/2000/svg" width="24" height="24" viewBox="0 0 24 24">
    <path fill="#23232F" fill-rule="nonzero" d="M14.592 5.001A3.084 3.084 0 0 1 17.5 8.127v1.374a3 3 0 0 1-1.753 2.726l.191.963a.5.5 0 0 0 .369.388l2.557.64A1.5 1.5 0 0 1 20 15.671v2.83a.5.5 0 0 1-.5.5h-4.592c.06-.16.09-.33.092-.5v-2.37a2.51 2.51 0 0 0-1.813-2.406l-.137-.04a1.5 1.5 0 0 0 .534-2.1A4.239 4.239 0 0 1 13 9.13a4.207 4.207 0 0 0-1.03-2.735 3 3 0 0 1 2.622-1.393zm-5.676 1h.203A3.093 3.093 0 0 1 12 9.132a5.233 5.233 0 0 0 .739 2.983.5.5 0 0 1-.192.712 4.949 4.949 0 0 1-2.3.4l.17.522a.5.5 0 0 0 .338.325l2.157.616A1.5 1.5 0 0 1 14 16.132v2.37a.5.5 0 0 1-.5.5h-9a.5.5 0 0 1-.5-.5v-2.37a1.5 1.5 0 0 1 1.092-1.442l2.157-.616a.5.5 0 0 0 .338-.325l.17-.522a4.949 4.949 0 0 1-2.3-.4.5.5 0 0 1-.193-.71C5.82 11.176 6.077 10.09 6 9a3 3 0 0 1 3.119-3z" opacity=".5"/>
</svg>
