<svg width="24" height="24" viewBox="0 0 24 24" fill="none" xmlns="http://www.w3.org/2000/svg">
  <path d="M17.6099 16.2972L17.3285 16.6482L17.6479 16.965L21.3535 20.6407C21.4417 20.7335 21.491 20.8568 21.491 20.985C21.491 21.1136 21.4414 21.2372 21.3527 21.3302C21.3067 21.376 21.2522 21.4124 21.1923 21.4374C21.1314 21.4628 21.066 21.4758 21 21.4758C20.934 21.4758 20.8686 21.4628 20.8077 21.4374C20.7468 21.412 20.6915 21.3748 20.645 21.3279L20.6436 21.3265L16.9636 17.6465L16.6467 17.3296L16.2972 17.61C14.6013 18.9701 12.4488 19.6287 10.2823 19.4505C8.11573 19.2723 6.0998 18.2708 4.649 16.6519C3.1982 15.0329 2.42282 12.9197 2.48228 10.7466C2.54174 8.57357 3.43153 6.50588 4.96869 4.96872C6.50585 3.43156 8.57354 2.54177 10.7466 2.48231C12.9197 2.42285 15.0329 3.19823 16.6518 4.64903C18.2707 6.09983 19.2723 8.11576 19.4505 10.2823C19.6287 12.4489 18.97 14.6014 17.6099 16.2972ZM6.83322 17.236C8.06659 18.0602 9.51664 18.5 11 18.5C12.9891 18.5 14.8968 17.7099 16.3033 16.3033C17.7098 14.8968 18.5 12.9892 18.5 11C18.5 9.51667 18.0601 8.06662 17.236 6.83325C16.4119 5.59988 15.2406 4.63859 13.8701 4.07093C12.4997 3.50327 10.9917 3.35475 9.53682 3.64414C8.08196 3.93353 6.74559 4.64783 5.6967 5.69673C4.6478 6.74562 3.9335 8.08199 3.64411 9.53685C3.35472 10.9917 3.50324 12.4997 4.0709 13.8702C4.63856 15.2406 5.59985 16.4119 6.83322 17.236Z" fill="#94928F" stroke="#94928F"/>
</svg>
