<svg xmlns="http://www.w3.org/2000/svg" width="32" height="32" viewBox="0 0 32 32">
    <path fill="#F26334" d="M11.876 6c1.233 0 1.906 1.438 1.117 2.385l-1.483 1.78 2.734 2.46c1.873 1.686 2.98 4.054 3.082 6.56l.007.378v5.77c0 .737-.597 1.334-1.333 1.334-.684 0-1.247-.515-1.324-1.178l-.01-.156v-5.77c0-1.772-.704-3.466-1.95-4.712l-.256-.243-2.658-2.393-1.05 1.26c-.767.922-2.236.564-2.524-.563l-.027-.129-.848-5.09C5.205 6.807 5.89 6 6.787 6zm14.667 0c.899 0 1.582.807 1.434 1.693l-.848 5.09c-.204 1.228-1.755 1.648-2.551.692l-1.249-1.498-3.83 3.064c-.574.46-1.413.367-1.873-.208-.425-.53-.378-1.287.084-1.762l.124-.112 3.788-3.032-1.285-1.542c-.76-.913-.162-2.283.987-2.38l.13-.005z"/>
</svg>
