<svg width="32" height="32" viewBox="0 0 32 32" fill="none" xmlns="http://www.w3.org/2000/svg">
  <path fill-rule="evenodd" clip-rule="evenodd" d="M14 2H15.5279C18.2687 2 20.7743 3.54854 22 6L32 14V18L22 26C20.7743 28.4515 18.2687 30 15.5279 30H14V24.9145C12.3962 24.2917 10.8915 23.4096 9.54985 22.2915L8 21L4 26H0V6H4L8 11L9.54985 9.70846C10.8915 8.59041 12.3962 7.70835 14 7.08546V2ZM26 14C26 15.1046 25.1046 16 24 16C22.8954 16 22 15.1046 22 14C22 12.8954 22.8954 12 24 12C25.1046 12 26 12.8954 26 14Z" fill="#5D4037"/>
</svg>
