<svg width="32" height="32" viewBox="0 0 32 32" fill="none" xmlns="http://www.w3.org/2000/svg">
  <path fill-rule="evenodd" clip-rule="evenodd" d="M18 0H6V13.9993C3.57111 15.8237 2 18.7284 2 22C2 27.5228 6.47715 32 12 32C17.5228 32 22 27.5228 22 22C22 18.7284 20.4289 15.8237 18 13.9993V0ZM8.40231 17.1975L10 15.9975V4H14V15.9975L15.5977 17.1975C17.064 18.299 18 20.0396 18 22C18 22.7013 17.8797 23.3744 17.6586 24H6.34141C6.12031 23.3744 6 22.7013 6 22C6 20.0396 6.93595 18.299 8.40231 17.1975Z" fill="#5D4037"/>
  <path d="M32 8H22V12H32V8Z" fill="#5D4037"/>
  <path d="M26 0H32V4H26V0Z" fill="#5D4037"/>
  <path d="M32 16H26V20H32V16Z" fill="#5D4037"/>
  <path d="M26 24H32V28H26V24Z" fill="#5D4037"/>
</svg>
