<svg width="32" height="32" viewBox="0 0 32 32" fill="none" xmlns="http://www.w3.org/2000/svg">
  <path d="M20 3C20 4.65685 18.6569 6 17 6C15.3431 6 14 4.65685 14 3C14 1.34315 15.3431 0 17 0C18.6569 0 20 1.34315 20 3Z" fill="#5D4037"/>
  <path d="M5.66251 10.9011C6.15314 9.18391 7.72269 8 9.50861 8H15.4721L21.0911 10.8095L25.2572 9.14305L26.7428 12.857L22.5767 14.5234C21.5159 14.9477 20.3242 14.8982 19.3023 14.3872L19.0023 14.2372L17.9328 18.5152L19.6768 19.5118C21.2327 20.4009 22.0075 22.2164 21.5728 23.9549L19.5616 32H15.4385L17.6923 22.9848L14.3 21.0463L11.5616 32H7.43845L12.4385 12H9.50861L8.36575 16H4.20569L5.66251 10.9011Z" fill="#5D4037"/>
</svg>
