<svg width="32" height="31" viewBox="0 0 32 31" fill="none" xmlns="http://www.w3.org/2000/svg">
  <g filter="url(#filter0_d_845:43931)">
    <ellipse cx="15.756" cy="12.2928" rx="11.7565" ry="11.7074" fill="#FFAA2B"/>
    <path d="M26.6962 11.7071C26.6962 17.4477 22.0215 22.1107 16.2435 22.1107C10.4654 22.1107 5.79077 17.4477 5.79077 11.7071C5.79077 5.96655 10.4654 1.30359 16.2435 1.30359C22.0215 1.30359 26.6962 5.96655 26.6962 11.7071Z" fill="url(#paint0_linear_845:43931)" stroke="url(#paint1_linear_845:43931)" stroke-width="2.60766"/>
    <path d="M26.1498 10.4047C26.1873 10.6901 26.2126 10.9793 26.2252 11.2717L24.9226 11.328C24.9281 11.4536 24.9308 11.58 24.9308 11.7071C24.9308 11.8342 24.9281 11.9606 24.9226 12.0862L26.2252 12.1425C26.2126 12.435 26.1873 12.7242 26.1498 13.0095L24.8571 12.8398C24.8241 13.0914 24.7802 13.3394 24.726 13.5835L25.9988 13.8662C25.9355 14.151 25.86 14.4312 25.7728 14.7062L24.5299 14.3122C24.4536 14.5532 24.3668 14.7896 24.2702 15.021L25.4735 15.5232C25.3614 15.7918 25.2378 16.0545 25.1034 16.3106L23.9489 15.7046C23.8316 15.9282 23.7046 16.1461 23.5686 16.3578L24.6656 17.0625C24.5086 17.3069 24.3412 17.5441 24.1639 17.7733L23.1325 16.9757C22.9781 17.1754 22.815 17.3682 22.644 17.5536L23.6023 18.4377C23.4055 18.651 23.1996 18.8556 22.9851 19.0511L22.107 18.0872C21.9205 18.2571 21.7266 18.419 21.5259 18.5723L22.3172 19.6086C22.087 19.7844 21.8489 19.9504 21.6035 20.1061L20.905 19.0051C20.6925 19.14 20.4737 19.2658 20.2492 19.3822L20.8492 20.5397C20.5925 20.6728 20.3292 20.7952 20.06 20.9061L19.5632 19.7006C19.3311 19.7962 19.0939 19.8822 18.8522 19.9578L19.2417 21.2021C18.9665 21.2883 18.6861 21.3629 18.4011 21.4254L18.1217 20.1519C17.8771 20.2055 17.6286 20.2489 17.3765 20.2816L17.5441 21.5746C17.2587 21.6116 16.9695 21.6366 16.677 21.6491L16.6214 20.3465C16.4955 20.3518 16.3689 20.3545 16.2416 20.3545C16.1142 20.3545 15.9876 20.3518 15.8618 20.3465L15.8062 21.6491C15.5137 21.6366 15.2245 21.6116 14.9391 21.5746L15.1067 20.2816C14.8546 20.2489 14.606 20.2055 14.3614 20.1519L14.0821 21.4254C13.7971 21.3629 13.5167 21.2883 13.2414 21.2021L13.6309 19.9578C13.3892 19.8822 13.1521 19.7962 12.9199 19.7006L12.4232 20.9061C12.154 20.7952 11.8907 20.6728 11.6339 20.5397L12.234 19.3822C12.0095 19.2658 11.7907 19.14 11.5781 19.0051L10.8797 20.1061C10.6343 19.9504 10.3962 19.7844 10.166 19.6086L10.9573 18.5723C10.7565 18.419 10.5626 18.2571 10.3762 18.0872L9.49806 19.051C9.28354 18.8556 9.07761 18.651 8.88091 18.4377L9.8392 17.5536C9.66813 17.3682 9.50511 17.1754 9.35069 16.9757L8.31927 17.7733C8.14201 17.544 7.97456 17.3069 7.81755 17.0625L8.91452 16.3578C8.77853 16.1461 8.65159 15.9282 8.53424 15.7046L7.37979 16.3106C7.24534 16.0545 7.12176 15.7918 7.00965 15.5232L8.21292 15.021C8.11635 14.7896 8.02961 14.5532 7.95322 14.3122L6.71034 14.7062C6.62316 14.4312 6.54765 14.151 6.48439 13.8662L7.7572 13.5835C7.70298 13.3394 7.65911 13.0914 7.62609 12.8398L6.33335 13.0095C6.29589 12.7242 6.27057 12.435 6.25793 12.1425L7.56054 12.0862C7.55511 11.9606 7.55237 11.8342 7.55237 11.7071C7.55237 11.58 7.55511 11.4536 7.56054 11.328L6.25793 11.2717C6.27057 10.9793 6.29589 10.6901 6.33335 10.4047L7.62609 10.5744C7.65911 10.3228 7.70298 10.0748 7.7572 9.83077L6.48439 9.54802C6.54765 9.26326 6.62316 8.98309 6.71034 8.70807L7.95322 9.10207C8.02961 8.86108 8.11635 8.62463 8.21292 8.39321L7.00965 7.89108C7.12176 7.62245 7.24534 7.35976 7.37979 7.10362L8.53424 7.70961C8.65159 7.48604 8.77853 7.26814 8.91453 7.05645L7.81755 6.35174C7.97456 6.10732 8.14201 5.87019 8.31927 5.64097L9.35069 6.43856C9.50511 6.23887 9.66813 6.04603 9.8392 5.8606L8.88091 4.97649C9.07762 4.76328 9.28354 4.55864 9.49806 4.36319L10.3762 5.32699C10.5626 5.15712 10.7565 4.99524 10.9573 4.8419L10.166 3.80567C10.3962 3.62987 10.6343 3.46382 10.8797 3.30815L11.5781 4.40912C11.7907 4.27428 12.0095 4.14841 12.234 4.03205L11.6339 2.87449C11.8907 2.7414 12.154 2.61909 12.4232 2.50815L12.9199 3.71364C13.1521 3.61799 13.3892 3.53209 13.6309 3.45642L13.2414 2.21213C13.5167 2.12596 13.7971 2.05134 14.0821 1.98883L14.3614 3.26238C14.606 3.20873 14.8546 3.16531 15.1067 3.13264L14.9391 1.83962C15.2245 1.80263 15.5137 1.77762 15.8062 1.76514L15.8618 3.06778C15.9876 3.06241 16.1142 3.05969 16.2416 3.05969C16.3689 3.05969 16.4955 3.06241 16.6214 3.06778L16.677 1.76514C16.9695 1.77762 17.2587 1.80263 17.5441 1.83962L17.3765 3.13264C17.6286 3.16531 17.8771 3.20873 18.1217 3.26238L18.4011 1.98883C18.6861 2.05134 18.9665 2.12596 19.2417 2.21213L18.8522 3.45642C19.0939 3.53209 19.3311 3.61799 19.5632 3.71364L20.06 2.50815C20.3292 2.61909 20.5925 2.7414 20.8492 2.87449L20.2492 4.03205C20.4737 4.14841 20.6925 4.27428 20.905 4.40912L21.6035 3.30815C21.8489 3.46383 22.087 3.62987 22.3172 3.80567L21.5259 4.84191C21.7267 4.99524 21.9206 5.15712 22.107 5.32699L22.9851 4.36319C23.1996 4.55864 23.4056 4.76328 23.6023 4.9765L22.644 5.8606C22.815 6.04603 22.9781 6.23887 23.1325 6.43856L24.1639 5.64097C24.3412 5.87019 24.5086 6.10732 24.6656 6.35174L23.5686 7.05645C23.7046 7.26814 23.8316 7.48605 23.9489 7.70962L25.1034 7.10362C25.2378 7.35976 25.3614 7.62245 25.4735 7.89109L24.2702 8.39321C24.3668 8.62463 24.4536 8.86108 24.5299 9.10207L25.7728 8.70808C25.86 8.98309 25.9355 9.26326 25.9988 9.54802L24.726 9.83077C24.7802 10.0748 24.8241 10.3228 24.8571 10.5744L26.1498 10.4047Z" stroke="#B45804" stroke-opacity="0.3" stroke-width="2.60766" stroke-dasharray="0.87 0.87"/>
    <path d="M18.4536 9.72576C18.4058 9.78661 18.358 9.83441 18.3101 9.86918C18.2667 9.90395 18.2015 9.92133 18.1146 9.92133C18.032 9.92133 17.9516 9.89743 17.8734 9.84962C17.7951 9.79747 17.7017 9.74097 17.593 9.68013C17.4844 9.61493 17.354 9.55843 17.2019 9.51063C17.0541 9.45847 16.8694 9.4324 16.6478 9.4324C16.3653 9.4324 16.1175 9.48455 15.9046 9.58886C15.6916 9.68882 15.5134 9.83441 15.37 10.0256C15.2309 10.2169 15.1266 10.4494 15.0571 10.7232C14.9875 10.9926 14.9528 11.299 14.9528 11.6424C14.9528 11.9988 14.9897 12.316 15.0636 12.5942C15.1418 12.8723 15.2527 13.107 15.3961 13.2983C15.5395 13.4851 15.7133 13.6286 15.9176 13.7285C16.1219 13.8241 16.3522 13.8719 16.6086 13.8719C16.8651 13.8719 17.0715 13.8415 17.228 13.7807C17.3888 13.7155 17.5235 13.6459 17.6322 13.5721C17.7408 13.4938 17.8342 13.4243 17.9125 13.3634C17.9951 13.2983 18.0863 13.2657 18.1863 13.2657C18.3167 13.2657 18.4145 13.3156 18.4796 13.4156L18.9425 14.0023C18.7643 14.2109 18.5709 14.387 18.3623 14.5304C18.1537 14.6695 17.9364 14.7825 17.7104 14.8694C17.4887 14.9519 17.2584 15.0106 17.0194 15.0454C16.7803 15.0802 16.5435 15.0975 16.3088 15.0975C15.8959 15.0975 15.5069 15.0215 15.1418 14.8694C14.7768 14.7129 14.4573 14.4869 14.1835 14.1914C13.9141 13.8958 13.6989 13.5351 13.5381 13.1092C13.3817 12.6789 13.3034 12.19 13.3034 11.6424C13.3034 11.1513 13.373 10.6971 13.512 10.2799C13.6555 9.85832 13.8641 9.49542 14.1379 9.19119C14.4117 8.88262 14.7507 8.64141 15.1549 8.46756C15.5591 8.29372 16.0241 8.2068 16.55 8.2068C17.0498 8.2068 17.4866 8.2872 17.8603 8.44801C18.2384 8.60881 18.5774 8.83915 18.8773 9.13904L18.4536 9.72576Z" fill="#B45804"/>
  </g>
  <defs>
    <filter id="filter0_d_845:43931" x="0.522629" y="-0.000244141" width="30.9543" height="30.9543" filterUnits="userSpaceOnUse" color-interpolation-filters="sRGB">
      <feFlood flood-opacity="0" result="BackgroundImageFix"/>
      <feColorMatrix in="SourceAlpha" type="matrix" values="0 0 0 0 0 0 0 0 0 0 0 0 0 0 0 0 0 0 127 0" result="hardAlpha"/>
      <feOffset dy="3.47688"/>
      <feGaussianBlur stdDeviation="1.73844"/>
      <feComposite in2="hardAlpha" operator="out"/>
      <feColorMatrix type="matrix" values="0 0 0 0 0 0 0 0 0 0 0 0 0 0 0 0 0 0 0.1 0"/>
      <feBlend mode="normal" in2="BackgroundImageFix" result="effect1_dropShadow_845:43931"/>
      <feBlend mode="normal" in="SourceGraphic" in2="effect1_dropShadow_845:43931" result="shape"/>
    </filter>
    <linearGradient id="paint0_linear_845:43931" x1="4.48694" y1="-0.000244141" x2="21.4404" y2="23.482" gradientUnits="userSpaceOnUse">
      <stop stop-color="#FFDA56"/>
      <stop offset="1" stop-color="#ED9004"/>
    </linearGradient>
    <linearGradient id="paint1_linear_845:43931" x1="8.60172" y1="-0.000244374" x2="23.7953" y2="23.4727" gradientUnits="userSpaceOnUse">
      <stop stop-color="#FFE483"/>
      <stop offset="1" stop-color="#FFDB20"/>
    </linearGradient>
  </defs>
</svg>
