<svg width="37" height="55" viewBox="0 0 37 55" fill="none" xmlns="http://www.w3.org/2000/svg">
  <g filter="url(#filter0_di_1667_102411)">
    <path d="M2.5 48.255V1C2.5 0.447715 2.94772 0 3.5 0H33.5C34.0523 0 34.5 0.447714 34.5 0.999999V48.3065C34.5 49.0676 33.6836 49.5498 33.0171 49.1822L18.513 41.1837C18.2043 41.0134 17.8288 41.0183 17.5246 41.1965L4.00555 49.1178C3.3389 49.5085 2.5 49.0277 2.5 48.255Z" fill="url(#paint0_linear_1667_102411)"/>
  </g>
  <path d="M33.5 -4.23454e-08C34.0523 -1.89587e-08 34.5 0.447715 34.5 1L34.5 8L2.5 8L2.5 0.999998C2.5 0.447714 2.94772 -1.33609e-06 3.5 -1.31271e-06L33.5 -4.23454e-08Z" fill="url(#paint1_linear_1667_102411)" fill-opacity="0.59"/>
  <path fill-rule="evenodd" clip-rule="evenodd" d="M18.6291 23.9999C19.1814 23.9999 19.6291 23.5522 19.6291 22.9999C19.6291 22.4476 19.1814 21.9999 18.6291 21.9999C18.0769 21.9999 17.6292 22.4476 17.6292 22.9999C17.6292 23.5522 18.0769 23.9999 18.6291 23.9999ZM23.6292 23.9999C24.1814 23.9999 24.6292 23.5522 24.6292 22.9999C24.6292 22.4476 24.1814 21.9999 23.6292 21.9999C23.0769 21.9999 22.6292 22.4476 22.6292 22.9999C22.6292 23.5522 23.0769 23.9999 23.6292 23.9999ZM18.6291 27.9996C19.1814 27.9996 19.6291 27.5519 19.6291 26.9996C19.6291 26.4473 19.1814 25.9996 18.6291 25.9996C18.0769 25.9996 17.6292 26.4473 17.6292 26.9996C17.6292 27.5519 18.0769 27.9996 18.6291 27.9996ZM23.6292 27.9996C24.1814 27.9996 24.6292 27.5519 24.6292 26.9996C24.6292 26.4473 24.1814 25.9996 23.6292 25.9996C23.0769 25.9996 22.6292 26.4473 22.6292 26.9996C22.6292 27.5519 23.0769 27.9996 23.6292 27.9996ZM13.6292 23.9999C14.1814 23.9999 14.6292 23.5522 14.6292 22.9999C14.6292 22.4476 14.1814 21.9999 13.6292 21.9999C13.0769 21.9999 12.6292 22.4476 12.6292 22.9999C12.6292 23.5522 13.0769 23.9999 13.6292 23.9999ZM25.6292 13.9998H24.6291V12.9998C24.6291 12.4475 24.1814 11.9998 23.6292 11.9998C23.0769 11.9998 22.6291 12.4475 22.6291 12.9998V13.9998H14.6292V12.9998C14.6292 12.4475 14.1814 11.9998 13.6292 11.9998C13.0769 11.9998 12.6292 12.4475 12.6292 12.9998V13.9998H11.6292C9.9723 13.9998 8.62915 15.3429 8.62915 16.9998V28.9998C8.62915 30.6566 9.9723 31.9998 11.6292 31.9998H25.6292C27.286 31.9998 28.6292 30.6566 28.6292 28.9998V16.9998C28.6292 15.3429 27.286 13.9998 25.6292 13.9998ZM26.6292 28.9996C26.6292 29.5519 26.1814 29.9996 25.6292 29.9996H11.6292C11.0769 29.9996 10.6292 29.5519 10.6292 28.9996V19.9996H26.6292V28.9996ZM26.6292 17.9999H10.6292V16.9999C10.6292 16.4476 11.0769 15.9999 11.6292 15.9999H25.6292C26.1814 15.9999 26.6292 16.4476 26.6292 16.9999V17.9999ZM13.6292 27.9996C14.1814 27.9996 14.6292 27.5519 14.6292 26.9996C14.6292 26.4473 14.1814 25.9996 13.6292 25.9996C13.0769 25.9996 12.6292 26.4473 12.6292 26.9996C12.6292 27.5519 13.0769 27.9996 13.6292 27.9996Z" fill="#E38903"/>
  <defs>
    <filter id="filter0_di_1667_102411" x="0.146342" y="0" width="36.7073" height="54.0152" filterUnits="userSpaceOnUse" color-interpolation-filters="sRGB">
      <feFlood flood-opacity="0" result="BackgroundImageFix"/>
      <feColorMatrix in="SourceAlpha" type="matrix" values="0 0 0 0 0 0 0 0 0 0 0 0 0 0 0 0 0 0 127 0" result="hardAlpha"/>
      <feOffset dy="2.35366"/>
      <feGaussianBlur stdDeviation="1.17683"/>
      <feComposite in2="hardAlpha" operator="out"/>
      <feColorMatrix type="matrix" values="0 0 0 0 0 0 0 0 0 0 0 0 0 0 0 0 0 0 0.25 0"/>
      <feBlend mode="normal" in2="BackgroundImageFix" result="effect1_dropShadow_1667_102411"/>
      <feBlend mode="normal" in="SourceGraphic" in2="effect1_dropShadow_1667_102411" result="shape"/>
      <feColorMatrix in="SourceAlpha" type="matrix" values="0 0 0 0 0 0 0 0 0 0 0 0 0 0 0 0 0 0 127 0" result="hardAlpha"/>
      <feOffset dy="2.35366"/>
      <feGaussianBlur stdDeviation="2.94207"/>
      <feComposite in2="hardAlpha" operator="arithmetic" k2="-1" k3="1"/>
      <feColorMatrix type="matrix" values="0 0 0 0 0 0 0 0 0 0 0 0 0 0 0 0 0 0 0.25 0"/>
      <feBlend mode="normal" in2="shape" result="effect2_innerShadow_1667_102411"/>
    </filter>
    <linearGradient id="paint0_linear_1667_102411" x1="18.5" y1="0" x2="18.5" y2="50" gradientUnits="userSpaceOnUse">
      <stop stop-color="#CA2F2F"/>
      <stop offset="1" stop-color="#671414"/>
    </linearGradient>
    <linearGradient id="paint1_linear_1667_102411" x1="18.5" y1="4.44444" x2="18.5" y2="8" gradientUnits="userSpaceOnUse">
      <stop stop-color="#FF4B4B"/>
      <stop offset="1" stop-color="#FF3E3E" stop-opacity="0"/>
    </linearGradient>
  </defs>
</svg>
