<svg width="38" height="55" viewBox="0 0 38 55" fill="none" xmlns="http://www.w3.org/2000/svg">
  <g filter="url(#filter0_di_1667_102433)">
    <path d="M3 48.255V1C3 0.447715 3.44772 0 4 0H34C34.5523 0 35 0.447714 35 0.999999V48.3065C35 49.0676 34.1836 49.5498 33.5171 49.1822L19.013 41.1837C18.7043 41.0134 18.3288 41.0183 18.0246 41.1965L4.50555 49.1178C3.8389 49.5085 3 49.0277 3 48.255Z" fill="url(#paint0_linear_1667_102433)"/>
  </g>
  <path d="M34 -4.23454e-08C34.5523 -1.89587e-08 35 0.447715 35 1L35 8L3 8L3 0.999998C3 0.447714 3.44772 -1.33609e-06 4 -1.31271e-06L34 -4.23454e-08Z" fill="url(#paint1_linear_1667_102433)" fill-opacity="0.59"/>
  <path d="M12.1292 21L23.1292 14" stroke="#E38903" stroke-width="2" stroke-linecap="round" stroke-linejoin="round"/>
  <path d="M20.1292 29L26.1292 17" stroke="#E38903" stroke-width="2" stroke-linecap="round" stroke-linejoin="round"/>
  <path d="M21.6292 12.5L27.6292 18.5" stroke="#E38903" stroke-width="2" stroke-linecap="round" stroke-linejoin="round"/>
  <path d="M16.1292 25L10.1292 31" stroke="#E38903" stroke-width="2" stroke-linecap="round" stroke-linejoin="round"/>
  <path d="M10.1292 19L22.1292 31" stroke="#E38903" stroke-width="2" stroke-linecap="round" stroke-linejoin="round"/>
  <defs>
    <filter id="filter0_di_1667_102433" x="0.646342" y="0" width="36.7073" height="54.0152" filterUnits="userSpaceOnUse" color-interpolation-filters="sRGB">
      <feFlood flood-opacity="0" result="BackgroundImageFix"/>
      <feColorMatrix in="SourceAlpha" type="matrix" values="0 0 0 0 0 0 0 0 0 0 0 0 0 0 0 0 0 0 127 0" result="hardAlpha"/>
      <feOffset dy="2.35366"/>
      <feGaussianBlur stdDeviation="1.17683"/>
      <feComposite in2="hardAlpha" operator="out"/>
      <feColorMatrix type="matrix" values="0 0 0 0 0 0 0 0 0 0 0 0 0 0 0 0 0 0 0.25 0"/>
      <feBlend mode="normal" in2="BackgroundImageFix" result="effect1_dropShadow_1667_102433"/>
      <feBlend mode="normal" in="SourceGraphic" in2="effect1_dropShadow_1667_102433" result="shape"/>
      <feColorMatrix in="SourceAlpha" type="matrix" values="0 0 0 0 0 0 0 0 0 0 0 0 0 0 0 0 0 0 127 0" result="hardAlpha"/>
      <feOffset dy="2.35366"/>
      <feGaussianBlur stdDeviation="2.94207"/>
      <feComposite in2="hardAlpha" operator="arithmetic" k2="-1" k3="1"/>
      <feColorMatrix type="matrix" values="0 0 0 0 0 0 0 0 0 0 0 0 0 0 0 0 0 0 0.25 0"/>
      <feBlend mode="normal" in2="shape" result="effect2_innerShadow_1667_102433"/>
    </filter>
    <linearGradient id="paint0_linear_1667_102433" x1="19" y1="0" x2="19" y2="50" gradientUnits="userSpaceOnUse">
      <stop stop-color="#CA2F2F"/>
      <stop offset="1" stop-color="#671414"/>
    </linearGradient>
    <linearGradient id="paint1_linear_1667_102433" x1="19" y1="4.44444" x2="19" y2="8" gradientUnits="userSpaceOnUse">
      <stop stop-color="#FF4B4B"/>
      <stop offset="1" stop-color="#FF3E3E" stop-opacity="0"/>
    </linearGradient>
  </defs>
</svg>
