<svg width="38" height="55" viewBox="0 0 38 55" fill="none" xmlns="http://www.w3.org/2000/svg">
  <g filter="url(#filter0_di_1268_170225)">
    <path d="M3 48.255V1C3 0.447715 3.44772 0 4 0H34C34.5523 0 35 0.447714 35 0.999999V48.3065C35 49.0676 34.1836 49.5498 33.5171 49.1822L19.013 41.1837C18.7043 41.0134 18.3288 41.0183 18.0246 41.1965L4.50555 49.1178C3.8389 49.5085 3 49.0277 3 48.255Z" fill="url(#paint0_linear_1268_170225)"/>
  </g>
  <path d="M34 -4.23454e-08C34.5523 -1.89587e-08 35 0.447715 35 1L35 8L3 8L3 0.999998C3 0.447714 3.44772 -1.33609e-06 4 -1.31271e-06L34 -4.23454e-08Z" fill="url(#paint1_linear_1268_170225)" fill-opacity="0.59"/>
  <path d="M22.3794 22.4329L23.1283 22L22.3794 21.5671L17.3794 18.6771L16.6292 18.2435V19.11V24.89V25.7565L17.3794 25.3229L22.3794 22.4329ZM17.8792 17.813L22.8783 20.7025C22.8783 20.7025 22.8783 20.7025 22.8784 20.7026C23.1056 20.8344 23.2943 21.0236 23.4254 21.2513C23.5566 21.479 23.6256 21.7372 23.6256 22C23.6256 22.2628 23.5566 22.521 23.4254 22.7487C23.2943 22.9764 23.1056 23.1656 22.8784 23.2974C22.8783 23.2975 22.8783 23.2975 22.8783 23.2975L17.8792 26.187C17.8791 26.187 17.879 26.1871 17.879 26.1871C17.651 26.3187 17.3924 26.3879 17.1292 26.3879C16.8658 26.3879 16.6072 26.3186 16.3792 26.187L16.1292 26.62L16.3792 26.187C16.1514 26.0555 15.9621 25.8664 15.8305 25.6386C15.6989 25.411 15.6295 25.1528 15.6292 24.8899C15.6292 24.8898 15.6292 24.8896 15.6292 24.8895V19.1105C15.6292 19.1104 15.6292 19.1102 15.6292 19.1101C15.6295 18.8471 15.699 18.5887 15.8307 18.3611C15.9625 18.1332 16.1518 17.9441 16.3798 17.8126C16.6078 17.6812 16.8664 17.612 17.1295 17.6121C17.3927 17.6121 17.6512 17.6814 17.8792 17.813ZM13.8512 14.101C15.4135 13.0572 17.2502 12.5 19.1292 12.5C20.3767 12.5 21.6121 12.7457 22.7646 13.2231C23.9172 13.7006 24.9645 14.4003 25.8467 15.2825C26.7288 16.1646 27.4286 17.2119 27.906 18.3645C28.3834 19.5171 28.6292 20.7524 28.6292 22C28.6292 23.8789 28.072 25.7157 27.0281 27.2779C25.9842 28.8402 24.5005 30.0578 22.7646 30.7769C21.0288 31.4959 19.1186 31.684 17.2758 31.3175C15.433 30.9509 13.7402 30.0461 12.4116 28.7175C11.083 27.3889 10.1783 25.6962 9.81169 23.8534C9.44514 22.0105 9.63327 20.1004 10.3523 18.3645C11.0713 16.6286 12.289 15.1449 13.8512 14.101ZM14.4068 29.0675C15.8046 30.0015 17.448 30.5 19.1292 30.5C21.3835 30.5 23.5455 29.6045 25.1396 28.0104C26.7336 26.4163 27.6292 24.2543 27.6292 22C27.6292 20.3189 27.1306 18.6755 26.1966 17.2777C25.2627 15.8798 23.9351 14.7904 22.382 14.147C20.8288 13.5037 19.1197 13.3354 17.4709 13.6633C15.822 13.9913 14.3075 14.8008 13.1187 15.9896C11.93 17.1783 11.1205 18.6929 10.7925 20.3417C10.4645 21.9906 10.6328 23.6996 11.2762 25.2528C11.9195 26.806 13.009 28.1335 14.4068 29.0675Z" fill="#94928F" stroke="#E38903"/>
  <defs>
    <filter id="filter0_di_1268_170225" x="0.646342" y="0" width="36.7073" height="54.0152" filterUnits="userSpaceOnUse" color-interpolation-filters="sRGB">
      <feFlood flood-opacity="0" result="BackgroundImageFix"/>
      <feColorMatrix in="SourceAlpha" type="matrix" values="0 0 0 0 0 0 0 0 0 0 0 0 0 0 0 0 0 0 127 0" result="hardAlpha"/>
      <feOffset dy="2.35366"/>
      <feGaussianBlur stdDeviation="1.17683"/>
      <feComposite in2="hardAlpha" operator="out"/>
      <feColorMatrix type="matrix" values="0 0 0 0 0 0 0 0 0 0 0 0 0 0 0 0 0 0 0.25 0"/>
      <feBlend mode="normal" in2="BackgroundImageFix" result="effect1_dropShadow_1268_170225"/>
      <feBlend mode="normal" in="SourceGraphic" in2="effect1_dropShadow_1268_170225" result="shape"/>
      <feColorMatrix in="SourceAlpha" type="matrix" values="0 0 0 0 0 0 0 0 0 0 0 0 0 0 0 0 0 0 127 0" result="hardAlpha"/>
      <feOffset dy="2.35366"/>
      <feGaussianBlur stdDeviation="2.94207"/>
      <feComposite in2="hardAlpha" operator="arithmetic" k2="-1" k3="1"/>
      <feColorMatrix type="matrix" values="0 0 0 0 0 0 0 0 0 0 0 0 0 0 0 0 0 0 0.25 0"/>
      <feBlend mode="normal" in2="shape" result="effect2_innerShadow_1268_170225"/>
    </filter>
    <linearGradient id="paint0_linear_1268_170225" x1="19" y1="0" x2="19" y2="50" gradientUnits="userSpaceOnUse">
      <stop stop-color="#CA2F2F"/>
      <stop offset="1" stop-color="#671414"/>
    </linearGradient>
    <linearGradient id="paint1_linear_1268_170225" x1="19" y1="4.44444" x2="19" y2="8" gradientUnits="userSpaceOnUse">
      <stop stop-color="#FF4B4B"/>
      <stop offset="1" stop-color="#FF3E3E" stop-opacity="0"/>
    </linearGradient>
  </defs>
</svg>
