<svg width="20" height="20" viewBox="0 0 20 20" fill="none" xmlns="http://www.w3.org/2000/svg">
  <path fill-rule="evenodd" clip-rule="evenodd" d="M12.5684 1.91083C12.2429 1.58539 11.7153 1.58539 11.3899 1.91083C11.0644 2.23626 11.0644 2.7639 11.3899 3.08934L11.9548 3.6543L4.10798 8.03376L3.08922 7.01499C2.76378 6.68956 2.23614 6.68956 1.9107 7.01499C1.58527 7.34043 1.58527 7.86807 1.9107 8.1935L3.3629 9.6457C3.37092 9.65407 3.3791 9.66224 3.38742 9.67022L6.06103 12.3438L1.9107 16.4942C1.58527 16.8196 1.58527 17.3472 1.9107 17.6727C2.23614 17.9981 2.76378 17.9981 3.08922 17.6727L7.23954 13.5223L9.91627 16.1991C9.92225 16.2052 9.92834 16.2113 9.93454 16.2173L11.3899 17.6727C11.7153 17.9981 12.2429 17.9981 12.5684 17.6727C12.8938 17.3472 12.8938 16.8196 12.5684 16.4942L11.5496 15.4754L15.9291 7.62855L16.494 8.1935C16.8195 8.51894 17.3471 8.51894 17.6726 8.1935C17.998 7.86807 17.998 7.34043 17.6726 7.01499L16.3446 5.68708C16.3341 5.6759 16.3232 5.66499 16.3119 5.65435L13.9269 3.26935C13.9176 3.25959 13.9081 3.25009 13.8984 3.24085L12.5684 1.91083ZM10.3246 14.2504L14.7041 6.40356L13.1798 4.87929L5.33297 9.25875L7.8288 11.7546L10.3246 14.2504Z" fill="#23232F" fill-opacity="0.64"/>
</svg>
